<?xml version="1.0" encoding="UTF-8"?>
<svg id="Layer_1" xmlns="http://www.w3.org/2000/svg" xmlns:xlink="http://www.w3.org/1999/xlink" version="1.1" viewBox="0 0 269.82 165.95">
  <!-- Generator: Adobe Illustrator 30.3.0, SVG Export Plug-In . SVG Version: 2.1.3 Build 182)  -->
  <defs>
    <style>
      .st0, .st1 {
        fill: none;
      }

      .st2 {
        fill: #6d767e;
        fill-rule: evenodd;
        opacity: .51;
      }

      .st3, .st4, .st5, .st6 {
        fill: #231f20;
      }

      .st4 {
        font-size: 3.76px;
      }

      .st4, .st5, .st6 {
        font-family: MyriadPro-Regular, 'Myriad Pro';
      }

      .st5 {
        font-size: 5.01px;
      }

      .st6 {
        font-size: 2.51px;
      }

      .st7 {
        stroke-width: .25px;
      }

      .st7, .st8, .st1 {
        stroke: #222832;
        stroke-miterlimit: 10;
      }

      .st7, .st8, .st9 {
        fill: #faa31a;
      }

      .st8 {
        stroke-width: .2px;
      }

      .st1 {
        stroke-width: .21px;
      }

      .st10 {
        clip-path: url(#clippath);
      }
    </style>
    <clipPath id="clippath">
      <rect class="st0" x="9.81" y="28.28" width="260.02" height="128.07"/>
    </clipPath>
  </defs>
  <g class="st10">
    <polygon class="st2" points="36.01 154.41 37.21 154.39 39.5 154.24 41.65 153.94 43.67 153.51 45.57 152.96 47.36 152.29 49.86 151.1 52.91 149.21 55.68 147.03 59.52 143.43 64.41 138.39 68.24 134.79 71.02 132.62 74.07 130.72 76.57 129.53 78.36 128.86 80.26 128.31 82.28 127.88 84.43 127.58 86.72 127.43 87.91 127.41 87.91 129.21 86.72 129.23 84.43 129.38 82.28 129.68 80.26 130.11 78.36 130.66 76.57 131.33 74.07 132.52 71.02 134.42 68.24 136.59 64.41 140.19 59.52 145.23 55.68 148.83 52.91 151.01 49.86 152.9 47.36 154.09 45.57 154.76 43.67 155.31 41.65 155.74 39.5 156.04 37.21 156.19 36.01 156.21 36.01 154.41"/>
    <polygon class="st2" points="36.01 28.4 61.96 28.4 87.91 28.4 87.91 107.61 61.96 107.61 36.01 107.61 36.01 28.4"/>
    <polygon class="st2" points="36.01 120.21 37.21 120.23 39.5 120.41 41.65 120.74 43.67 121.23 45.57 121.86 47.36 122.61 49.86 123.96 52.91 126.11 55.68 128.57 59.52 132.66 64.41 138.37 68.24 142.45 71.02 144.91 74.07 147.06 76.57 148.41 78.36 149.17 80.26 149.79 82.28 150.28 84.43 150.62 86.72 150.79 87.91 150.81 87.91 154.41 86.72 154.39 84.43 154.22 82.28 153.88 80.26 153.39 78.36 152.77 76.57 152.01 74.07 150.66 71.02 148.51 68.24 146.05 64.41 141.97 59.52 136.26 55.68 132.17 52.91 129.71 49.86 127.56 47.36 126.21 45.57 125.46 43.67 124.83 41.65 124.34 39.5 124.01 37.21 123.83 36.01 123.81 36.01 120.21"/>
    <polygon class="st2" points="36.01 116.61 37.21 116.63 39.5 116.81 41.65 117.14 43.67 117.63 45.57 118.26 47.36 119.01 49.86 120.36 52.91 122.51 55.68 124.97 59.52 129.06 64.41 134.77 68.24 138.85 71.02 141.31 74.07 143.46 76.57 144.81 78.36 145.57 80.26 146.19 82.28 146.68 84.43 147.02 86.72 147.19 87.91 147.21 87.91 150.81 86.72 150.79 84.43 150.62 82.28 150.28 80.26 149.79 78.36 149.17 76.57 148.41 74.07 147.06 71.02 144.91 68.24 142.45 64.41 138.37 59.52 132.66 55.68 128.57 52.91 126.11 49.86 123.96 47.36 122.61 45.57 121.86 43.67 121.23 41.65 120.74 39.5 120.41 37.21 120.23 36.01 120.21 36.01 116.61"/>
    <polygon class="st2" points="36.01 107.61 37.21 107.63 39.5 107.8 41.65 108.14 43.67 108.63 45.57 109.25 47.36 110.01 49.86 111.36 52.91 113.51 55.68 115.97 59.52 120.06 64.41 125.76 68.24 129.85 71.02 132.31 74.07 134.46 76.57 135.81 78.36 136.57 80.26 137.19 82.28 137.68 84.43 138.02 86.72 138.19 87.91 138.21 87.91 147.21 86.72 147.19 84.43 147.02 82.28 146.68 80.26 146.19 78.36 145.57 76.57 144.81 74.07 143.46 71.02 141.31 68.24 138.85 64.41 134.77 59.52 129.06 55.68 124.97 52.91 122.51 49.86 120.36 47.36 119.01 45.57 118.26 43.67 117.63 41.65 117.14 39.5 116.81 37.21 116.63 36.01 116.61 36.01 107.61"/>
    <polygon class="st2" points="36.01 152.61 37.21 152.59 39.5 152.44 41.65 152.14 43.67 151.71 45.57 151.16 47.36 150.49 49.86 149.3 52.91 147.41 55.68 145.23 59.52 141.63 64.41 136.59 68.24 132.99 71.02 130.82 74.07 128.92 76.57 127.73 78.36 127.06 80.26 126.51 82.28 126.08 84.43 125.78 86.72 125.63 87.91 125.61 87.91 127.41 86.72 127.43 84.43 127.58 82.28 127.88 80.26 128.31 78.36 128.86 76.57 129.53 74.07 130.72 71.02 132.62 68.24 134.79 64.41 138.39 59.52 143.43 55.68 147.03 52.91 149.21 49.86 151.1 47.36 152.29 45.57 152.96 43.67 153.51 41.65 153.94 39.5 154.24 37.21 154.39 36.01 154.41 36.01 152.61"/>
    <polygon class="st2" points="36.01 141.81 37.21 141.79 39.5 141.64 41.65 141.34 43.67 140.91 45.57 140.36 47.36 139.69 49.86 138.5 52.91 136.61 55.68 134.43 59.52 130.83 64.41 125.79 68.24 122.19 71.02 120.02 74.07 118.12 76.57 116.93 78.36 116.26 80.26 115.71 82.28 115.28 84.43 114.98 86.72 114.83 87.91 114.81 87.91 118.41 86.72 118.43 84.43 118.58 82.28 118.88 80.26 119.31 78.36 119.86 76.57 120.53 74.07 121.72 71.02 123.62 68.24 125.79 64.41 129.39 59.52 134.43 55.68 138.03 52.91 140.21 49.86 142.1 47.36 143.29 45.57 143.96 43.67 144.51 41.65 144.94 39.5 145.24 37.21 145.39 36.01 145.41 36.01 141.81"/>
    <polygon class="st2" points="36.01 150.81 38.37 150.76 42.67 150.37 46.48 149.63 49.86 148.61 52.91 147.34 55.68 145.89 59.52 143.49 64.41 140.13 68.24 137.73 71.02 136.28 74.07 135.02 77.45 133.99 81.26 133.26 85.56 132.86 87.91 132.81 87.91 134.61 85.56 134.66 81.26 135.06 77.45 135.79 74.07 136.82 71.02 138.08 68.24 139.53 64.41 141.93 59.52 145.29 55.68 147.69 52.91 149.14 49.86 150.41 46.48 151.43 42.67 152.17 38.37 152.56 36.01 152.61 36.01 150.81"/>
    <polygon class="st2" points="36.01 123.81 38.37 123.76 42.67 123.41 46.48 122.75 49.86 121.82 52.91 120.69 55.68 119.38 59.52 117.22 64.41 114.2 68.24 112.04 71.02 110.73 74.07 109.6 77.45 108.67 81.26 108.01 85.56 107.66 87.91 107.61 87.91 114.81 85.56 114.86 81.26 115.21 77.45 115.87 74.07 116.8 71.02 117.93 68.24 119.24 64.41 121.4 59.52 124.42 55.68 126.58 52.91 127.89 49.86 129.02 46.48 129.95 42.67 130.61 38.37 130.96 36.01 131.01 36.01 123.81"/>
    <polygon class="st2" points="36.01 138.21 38.37 138.19 42.67 137.99 46.48 137.62 49.86 137.11 52.91 136.48 55.68 135.75 59.52 134.55 64.41 132.87 68.24 131.67 71.02 130.95 74.07 130.31 77.45 129.8 81.26 129.43 85.56 129.24 87.91 129.21 87.91 132.81 85.56 132.84 81.26 133.03 77.45 133.4 74.07 133.91 71.02 134.55 68.24 135.27 64.41 136.47 59.52 138.15 55.68 139.35 52.91 140.08 49.86 140.71 46.48 141.22 42.67 141.59 38.37 141.79 36.01 141.81 36.01 138.21"/>
    <polygon class="st2" points="36.01 149.01 37.21 148.99 39.5 148.85 41.65 148.58 43.67 148.17 46.48 147.36 49.86 145.92 52.91 144.15 55.68 142.13 59.52 138.76 64.41 134.06 68.24 130.7 71.02 128.67 74.07 126.9 77.45 125.46 80.26 124.65 82.28 124.25 84.43 123.97 86.72 123.83 87.91 123.81 87.91 125.61 86.72 125.63 84.43 125.77 82.28 126.05 80.26 126.45 77.45 127.26 74.07 128.7 71.02 130.47 68.24 132.5 64.41 135.86 59.52 140.56 55.68 143.93 52.91 145.95 49.86 147.72 46.48 149.16 43.67 149.97 41.65 150.38 39.5 150.65 37.21 150.79 36.01 150.81 36.01 149.01"/>
    <polygon class="st2" points="36.01 147.21 38.37 147.23 42.67 147.39 46.48 147.68 49.86 148.1 54.32 148.88 59.52 150.14 64.41 151.48 69.6 152.74 74.07 153.53 77.45 153.94 81.26 154.23 85.56 154.39 87.91 154.41 87.91 156.21 85.56 156.19 81.26 156.03 77.45 155.74 74.07 155.33 69.6 154.54 64.41 153.28 59.52 151.94 54.32 150.68 49.86 149.9 46.48 149.48 42.67 149.19 38.37 149.03 36.01 149.01 36.01 147.21"/>
    <polygon class="st2" points="36.01 145.41 37.21 145.39 39.5 145.24 41.65 144.94 43.67 144.51 45.57 143.96 47.36 143.29 49.86 142.1 52.91 140.21 55.68 138.03 59.52 134.43 64.41 129.39 68.24 125.79 71.02 123.62 74.07 121.72 76.57 120.53 78.36 119.86 80.26 119.31 82.28 118.88 84.43 118.58 86.72 118.43 87.91 118.41 87.91 120.21 86.72 120.23 84.43 120.38 82.28 120.68 80.26 121.11 78.36 121.66 76.57 122.33 74.07 123.52 71.02 125.42 68.24 127.59 64.41 131.19 59.52 136.23 55.68 139.83 52.91 142.01 49.86 143.9 47.36 145.09 45.57 145.76 43.67 146.31 41.65 146.74 39.5 147.04 37.21 147.19 36.01 147.21 36.01 145.41"/>
    <polygon class="st2" points="36.01 134.61 61.96 134.61 87.91 134.61 87.91 138.21 61.96 138.21 36.01 138.21 36.01 134.61"/>
    <polygon class="st2" points="36.01 131.01 38.37 130.98 42.67 130.74 46.48 130.3 49.86 129.69 52.91 128.93 55.68 128.06 59.52 126.62 64.41 124.6 68.24 123.16 71.02 122.29 74.07 121.53 77.45 120.92 81.26 120.48 85.56 120.24 87.91 120.21 87.91 123.81 85.56 123.84 81.26 124.08 77.45 124.52 74.07 125.13 71.02 125.89 68.24 126.76 64.41 128.2 59.52 130.22 55.68 131.66 52.91 132.53 49.86 133.29 46.48 133.9 42.67 134.34 38.37 134.58 36.01 134.61 36.01 131.01"/>
  </g>
  <g>
    <rect class="st9" x="10.06" y="154.41" width="25.95" height="1.8"/>
    <rect class="st1" x="10.06" y="154.41" width="25.95" height="1.8"/>
    <rect class="st9" x="87.91" y="150.81" width="25.95" height="3.6"/>
    <rect class="st1" x="87.91" y="150.81" width="25.95" height="3.6"/>
    <rect class="st9" x="87.91" y="147.21" width="25.95" height="3.6"/>
    <rect class="st1" x="87.91" y="147.21" width="25.95" height="3.6"/>
    <rect class="st8" x="87.91" y="138.21" width="25.95" height="9"/>
    <text/>
    <rect class="st9" x="10.06" y="28.4" width="25.95" height="95.41"/>
    <rect class="st1" x="10.06" y="28.4" width="25.95" height="95.41"/>
    <rect class="st9" x="10.06" y="152.61" width="25.95" height="1.8"/>
    <rect class="st1" x="10.06" y="152.61" width="25.95" height="1.8"/>
    <rect class="st9" x="10.06" y="141.81" width="25.95" height="3.6"/>
    <rect class="st1" x="10.06" y="141.81" width="25.95" height="3.6"/>
    <rect class="st9" x="10.06" y="150.81" width="25.95" height="1.8"/>
    <rect class="st1" x="10.06" y="150.81" width="25.95" height="1.8"/>
    <rect class="st7" x="10.06" y="123.81" width="25.95" height="7.2"/>
    <text class="st6" transform="translate(18.26 128.27) scale(1.01 1)"><tspan x="0" y="0">Russia</tspan></text>
    <rect class="st8" x="10.06" y="138.21" width="25.95" height="3.6"/>
    <text class="st6" transform="translate(18.26 140.89) scale(1.01 1)"><tspan x="0" y="0">Japan</tspan></text>
    <rect class="st9" x="10.06" y="149.01" width="25.95" height="1.8"/>
    <rect class="st1" x="10.06" y="149.01" width="25.95" height="1.8"/>
    <rect class="st9" x="87.91" y="154.41" width="25.95" height="1.8"/>
    <rect class="st1" x="87.91" y="154.41" width="25.95" height="1.8"/>
    <rect class="st9" x="10.06" y="147.21" width="25.95" height="1.8"/>
    <rect class="st1" x="10.06" y="147.21" width="25.95" height="1.8"/>
    <rect class="st8" x="10.06" y="145.41" width="25.95" height="1.8"/>
    <text class="st6" transform="translate(13.89 144.49) scale(1.01 1)"><tspan x="0" y="0">Soviet Union</tspan></text>
    <rect class="st9" x="87.91" y="129.21" width="25.95" height="9"/>
    <rect class="st1" x="87.91" y="129.21" width="25.95" height="9"/>
    <rect class="st8" x="10.06" y="134.61" width="25.95" height="3.6"/>
    <text class="st6" transform="translate(18.26 137.29) scale(1.01 1)"><tspan x="0" y="0">China</tspan></text>
    <rect class="st9" x="87.91" y="28.4" width="25.95" height="100.81"/>
    <rect class="st1" x="87.91" y="28.4" width="25.95" height="100.81"/>
    <rect class="st8" x="10.06" y="131.01" width="25.95" height="3.6"/>
    <text class="st6" transform="translate(17.27 133.69) scale(1.01 1)"><tspan x="0" y="0">Canada</tspan></text>
    <text/>
    <text class="st6" transform="translate(15.39 80.9) scale(1.01 1)"><tspan x="0" y="0">United States</tspan></text>
    <text class="st6" transform="translate(98.45 80.9) scale(1.01 1)"><tspan x="0" y="0">White</tspan></text>
    <text class="st6" transform="translate(97.29 133.72) scale(1.01 1)"><tspan x="0" y="0">Asian</tspan></text>
    <text class="st6" transform="translate(91.44 143.28) scale(1.01 1)"><tspan x="0" y="0">African American</tspan></text>
    <text class="st6" transform="translate(97.1 149.91) scale(1.01 1)"><tspan x="0" y="0">Hispanic</tspan></text>
    <text class="st6" transform="translate(98.25 153.51) scale(1.01 1)"><tspan x="0" y="0">Indian</tspan></text>
    <text class="st5" transform="translate(85.6 25.37) scale(1.01 1)"><tspan x="0" y="0">Racial Identity</tspan></text>
    <text class="st5" transform="translate(9.8 25.37) scale(1.01 1)"><tspan x="0" y="0">Nationality</tspan></text>
  </g>
  <text class="st4" transform="translate(13.12 74.75) scale(1.01 1)"><tspan x="0" y="0">United States</tspan></text>
  <g>
    <path class="st3" d="M1.04,3.24l-.29.95H.11L1.2.82h.79l1.11,3.37h-.67l-.31-.95h-1.08ZM2.02,2.77l-.27-.83c-.07-.21-.12-.44-.17-.63h-.01c-.05.2-.1.43-.16.63l-.26.83h.88Z"/>
    <path class="st3" d="M3.53,2.56c0-.32,0-.58-.02-.81h.55l.03.37h.01c.18-.27.47-.43.85-.43.56,0,1.03.48,1.03,1.24,0,.88-.56,1.31-1.12,1.31-.31,0-.57-.13-.69-.33h-.01v1.26h-.62v-2.62ZM4.15,3.17c0,.06,0,.12.02.17.06.25.28.43.55.43.4,0,.63-.32.63-.8,0-.43-.21-.78-.61-.78-.26,0-.49.19-.56.46-.01.05-.02.1-.02.16v.37Z"/>
    <path class="st3" d="M6.49,2.56c0-.32,0-.58-.02-.81h.55l.03.37h.01c.18-.27.47-.43.85-.43.56,0,1.03.48,1.03,1.24,0,.88-.56,1.31-1.12,1.31-.31,0-.57-.13-.69-.33h-.01v1.26h-.62v-2.62ZM7.11,3.17c0,.06,0,.12.02.17.06.25.28.43.55.43.4,0,.63-.32.63-.8,0-.43-.21-.78-.61-.78-.26,0-.49.19-.56.46-.01.05-.02.1-.02.16v.37Z"/>
    <path class="st3" d="M9.45,2.54c0-.33,0-.57-.02-.78h.54l.02.46h.02c.12-.34.41-.52.68-.52.06,0,.1,0,.15.01v.58c-.05-.01-.11-.02-.18-.02-.3,0-.5.19-.56.47-.01.05-.02.12-.02.19v1.26h-.62v-1.65Z"/>
    <path class="st3" d="M13.55,2.95c0,.9-.64,1.3-1.27,1.3-.7,0-1.23-.47-1.23-1.26s.53-1.29,1.28-1.29,1.23.51,1.23,1.25ZM11.69,2.98c0,.47.24.82.61.82s.61-.34.61-.83c0-.38-.17-.82-.6-.82s-.62.42-.62.83Z"/>
    <path class="st3" d="M14.38,1.76l.29.46c.08.13.15.25.22.38h.01c.07-.14.14-.26.22-.39l.27-.45h.68l-.82,1.17.84,1.27h-.71l-.3-.49c-.08-.13-.15-.26-.22-.4h-.01c-.07.14-.14.26-.22.4l-.29.49h-.69l.85-1.24-.83-1.19h.7Z"/>
    <path class="st3" d="M17.13,1.08c0,.18-.13.33-.36.33-.21,0-.34-.15-.34-.33,0-.19.14-.33.35-.33s.35.14.35.33ZM16.47,4.19V1.76h.62v2.44h-.62Z"/>
    <path class="st3" d="M17.76,2.48c0-.28,0-.51-.02-.72h.53l.03.36h.01c.12-.19.34-.41.76-.41.33,0,.58.18.68.45h0c.09-.13.19-.23.3-.31.14-.09.3-.14.5-.14.41,0,.82.28.82,1.06v1.43h-.61v-1.35c0-.41-.14-.64-.44-.64-.21,0-.37.15-.43.32-.02.06-.03.14-.03.21v1.46h-.61v-1.41c0-.34-.14-.58-.43-.58-.23,0-.39.18-.45.35-.02.06-.03.13-.03.2v1.44h-.61v-1.71Z"/>
    <path class="st3" d="M23.44,4.19l-.04-.27h-.01c-.15.19-.41.33-.73.33-.5,0-.78-.35-.78-.73,0-.61.55-.93,1.46-.92v-.04c0-.16-.06-.43-.5-.42-.24,0-.49.08-.66.18l-.12-.4c.19-.11.51-.22.89-.22.79,0,1.02.49,1.02,1.03v.88c0,.22.01.44.04.59h-.56ZM23.36,3c-.44,0-.86.09-.86.46,0,.24.16.35.36.35.25,0,.43-.16.49-.34.01-.04.02-.09.02-.13v-.34Z"/>
    <path class="st3" d="M25.31,1.06v.7h.59v.46h-.59v1.08c0,.3.08.45.32.45.11,0,.19-.01.24-.03v.47c-.08.03-.24.06-.44.06-.23,0-.42-.08-.54-.2-.13-.14-.2-.36-.2-.68v-1.15h-.35v-.46h.35v-.55l.61-.15Z"/>
    <path class="st3" d="M26.78,3.15c.02.44.36.63.76.63.29,0,.49-.04.68-.11l.09.42c-.21.09-.5.15-.86.15-.8,0-1.27-.49-1.27-1.24,0-.67.41-1.31,1.21-1.31s1.06.65,1.06,1.19c0,.11,0,.21-.02.26h-1.65ZM27.86,2.72c0-.23-.1-.59-.51-.59-.38,0-.54.34-.57.59h1.09Z"/>
    <path class="st3" d="M28.95.64h.62v3.55h-.62V.64Z"/>
    <path class="st3" d="M30.64,1.76l.44,1.31c.05.15.1.34.14.47h.01c.04-.14.08-.32.13-.48l.39-1.3h.67l-.62,1.66c-.34.91-.57,1.31-.86,1.57-.25.21-.5.29-.65.31l-.14-.52c.1-.03.24-.08.36-.17.12-.08.26-.22.34-.39.02-.04.04-.08.04-.11,0-.03,0-.06-.03-.12l-.91-2.24h.69Z"/>
    <path class="st3" d="M35.97.94v.39l-1.39,2.86h-.66l1.39-2.73h0s-1.55,0-1.55,0v-.51h2.21Z"/>
    <path class="st3" d="M38.52,1.45h-1.27l-.1.65c.07,0,.14-.01.24-.01.29,0,.58.06.8.21.25.16.43.43.43.83,0,.62-.52,1.13-1.33,1.13-.38,0-.7-.1-.87-.19l.13-.47c.14.08.43.17.73.17.36,0,.71-.21.71-.59,0-.37-.28-.62-.93-.62-.19,0-.32.01-.45.03l.21-1.64h1.71v.51Z"/>
    <path class="st3" d="M40.76,1.85c0,.68-.4,1.03-.86,1.03s-.83-.35-.84-.98c0-.61.36-1.02.86-1.02s.83.38.83.97ZM39.54,1.89c0,.37.13.65.38.65s.37-.26.37-.66c0-.36-.1-.65-.37-.65-.25,0-.38.29-.38.65ZM39.91,4.25l1.91-3.36h.35l-1.91,3.36h-.35ZM43.03,3.2c0,.68-.4,1.03-.86,1.03s-.84-.35-.84-.98c0-.61.36-1.02.86-1.02s.83.38.83.97ZM41.81,3.24c0,.37.13.65.38.65s.37-.26.37-.66c0-.36-.1-.65-.37-.65-.25,0-.38.29-.38.65Z"/>
    <path class="st3" d="M46.9,2.95c0,.9-.64,1.3-1.27,1.3-.7,0-1.23-.47-1.23-1.26s.53-1.29,1.28-1.29,1.23.51,1.23,1.25ZM45.04,2.98c0,.47.24.82.61.82s.61-.34.61-.83c0-.38-.17-.82-.6-.82s-.62.42-.62.83Z"/>
    <path class="st3" d="M47.48,4.19v-1.98h-.33v-.46h.33v-.1c0-.32.09-.63.3-.83.18-.17.43-.23.65-.23.17,0,.3.03.4.06l-.04.47c-.07-.02-.15-.04-.27-.04-.31,0-.41.26-.41.55v.13h.54v.46h-.54v1.98h-.62Z"/>
    <path class="st3" d="M50.14,4.19v-1.98h-.33v-.46h.33v-.1c0-.32.09-.63.3-.83.18-.17.43-.23.65-.23.17,0,.3.03.4.06l-.04.47c-.07-.02-.15-.04-.27-.04-.31,0-.41.26-.41.55v.13h.54v.46h-.54v1.98h-.62Z"/>
    <path class="st3" d="M52.07,3.15c.02.44.36.63.76.63.29,0,.49-.04.68-.11l.09.42c-.21.09-.5.15-.86.15-.8,0-1.27-.49-1.27-1.24,0-.67.41-1.31,1.21-1.31s1.06.65,1.06,1.19c0,.11,0,.21-.02.26h-1.65ZM53.15,2.72c0-.23-.1-.59-.51-.59-.38,0-.54.34-.57.59h1.09Z"/>
    <path class="st3" d="M54.24,2.48c0-.28,0-.51-.02-.72h.53l.03.36h.01c.12-.19.34-.41.76-.41.33,0,.58.18.68.45h0c.09-.13.19-.23.3-.31.14-.09.3-.14.5-.14.41,0,.82.28.82,1.06v1.43h-.61v-1.35c0-.41-.14-.64-.44-.64-.21,0-.37.15-.43.32-.02.06-.03.14-.03.21v1.46h-.61v-1.41c0-.34-.14-.58-.43-.58-.23,0-.39.18-.45.35-.02.06-.03.13-.03.2v1.44h-.61v-1.71Z"/>
    <path class="st3" d="M59.92,4.19l-.04-.27h-.01c-.15.19-.41.33-.73.33-.5,0-.78-.35-.78-.73,0-.61.55-.93,1.46-.92v-.04c0-.16-.06-.43-.5-.42-.24,0-.49.08-.66.18l-.12-.4c.19-.11.51-.22.89-.22.79,0,1.02.49,1.02,1.03v.88c0,.22.01.44.04.59h-.56ZM59.84,3c-.44,0-.86.09-.86.46,0,.24.16.35.36.35.25,0,.43-.16.49-.34.01-.04.02-.09.02-.13v-.34Z"/>
    <path class="st3" d="M61.1.64h.62v3.55h-.62V.64Z"/>
    <path class="st3" d="M62.84,3.15c.02.44.36.63.76.63.29,0,.49-.04.68-.11l.09.42c-.21.09-.5.15-.86.15-.8,0-1.27-.49-1.27-1.24,0-.67.41-1.31,1.21-1.31s1.06.65,1.06,1.19c0,.11,0,.21-.02.26h-1.65ZM63.93,2.72c0-.23-.1-.59-.51-.59-.38,0-.54.34-.57.59h1.09Z"/>
    <path class="st3" d="M67.45,4.19l-.04-.27h-.01c-.15.19-.41.33-.73.33-.5,0-.78-.35-.78-.73,0-.61.55-.93,1.46-.92v-.04c0-.16-.06-.43-.5-.42-.24,0-.49.08-.66.18l-.12-.4c.19-.11.51-.22.89-.22.79,0,1.02.49,1.02,1.03v.88c0,.22.01.44.04.59h-.56ZM67.37,3c-.44,0-.86.09-.86.46,0,.24.16.35.36.35.25,0,.43-.16.49-.34.01-.04.02-.09.02-.13v-.34Z"/>
    <path class="st3" d="M68.6,3.63c.14.08.41.18.63.18.27,0,.4-.11.4-.27s-.1-.25-.41-.35c-.48-.16-.68-.42-.68-.71,0-.43.36-.76.94-.76.27,0,.51.07.65.15l-.12.43c-.1-.06-.3-.14-.52-.14s-.35.11-.35.26.12.23.43.34c.45.16.66.38.66.74,0,.44-.35.77-1,.77-.3,0-.57-.07-.75-.17l.13-.45Z"/>
    <path class="st3" d="M71.46,1.06v.7h.59v.46h-.59v1.08c0,.3.08.45.32.45.11,0,.19-.01.24-.03v.47c-.08.03-.24.06-.44.06-.23,0-.42-.08-.54-.2-.13-.14-.2-.36-.2-.68v-1.15h-.35v-.46h.35v-.55l.61-.15Z"/>
    <path class="st3" d="M72.52,2.54c0-.33,0-.57-.02-.78h.54l.02.46h.02c.12-.34.41-.52.68-.52.06,0,.1,0,.15.01v.58c-.05-.01-.11-.02-.18-.02-.3,0-.5.19-.56.47-.01.05-.02.12-.02.19v1.26h-.62v-1.65Z"/>
    <path class="st3" d="M76.62,2.95c0,.9-.64,1.3-1.27,1.3-.7,0-1.23-.47-1.23-1.26s.53-1.29,1.28-1.29,1.23.51,1.23,1.25ZM74.76,2.98c0,.47.24.82.61.82s.61-.34.61-.83c0-.38-.17-.82-.6-.82s-.62.42-.62.83Z"/>
    <path class="st3" d="M77.13,2.48c0-.28,0-.51-.02-.72h.54l.03.37h.01c.11-.19.38-.42.79-.42.43,0,.88.27.88,1.04v1.45h-.62v-1.37c0-.35-.13-.62-.47-.62-.25,0-.42.17-.49.36-.02.05-.03.13-.03.2v1.43h-.62v-1.71Z"/>
    <path class="st3" d="M81.41,4.19l-.04-.27h-.01c-.15.19-.41.33-.73.33-.5,0-.78-.35-.78-.73,0-.61.55-.93,1.46-.92v-.04c0-.16-.06-.43-.5-.42-.24,0-.49.08-.66.18l-.12-.4c.19-.11.51-.22.89-.22.79,0,1.02.49,1.02,1.03v.88c0,.22.01.44.04.59h-.56ZM81.33,3c-.44,0-.86.09-.86.46,0,.24.16.35.36.35.25,0,.43-.16.49-.34.01-.04.02-.09.02-.13v-.34Z"/>
    <path class="st3" d="M84.8,3.46c0,.29,0,.53.02.73h-.54l-.03-.37h-.01c-.1.17-.35.42-.79.42s-.86-.27-.86-1.06v-1.43h.62v1.33c0,.4.13.66.46.66.25,0,.41-.17.48-.33.02-.05.03-.12.03-.19v-1.47h.62v1.71Z"/>
    <path class="st3" d="M86.19,1.06v.7h.59v.46h-.59v1.08c0,.3.08.45.32.45.11,0,.19-.01.24-.03v.47c-.08.03-.24.06-.44.06-.23,0-.42-.08-.54-.2-.13-.14-.2-.36-.2-.68v-1.15h-.35v-.46h.35v-.55l.61-.15Z"/>
    <path class="st3" d="M87.22,3.63c.14.08.41.18.63.18.27,0,.4-.11.4-.27s-.1-.25-.41-.35c-.48-.16-.68-.42-.68-.71,0-.43.36-.76.94-.76.27,0,.51.07.65.15l-.12.43c-.1-.06-.3-.14-.52-.14s-.35.11-.35.26.12.23.43.34c.45.16.66.38.66.74,0,.44-.35.77-1,.77-.3,0-.57-.07-.75-.17l.13-.45Z"/>
    <path class="st3" d="M91.8,4.19l-.04-.27h-.01c-.15.19-.41.33-.73.33-.5,0-.78-.35-.78-.73,0-.61.55-.93,1.46-.92v-.04c0-.16-.06-.43-.5-.42-.24,0-.49.08-.66.18l-.12-.4c.19-.11.51-.22.89-.22.79,0,1.02.49,1.02,1.03v.88c0,.22.01.44.04.59h-.56ZM91.71,3c-.44,0-.86.09-.86.46,0,.24.16.35.36.35.25,0,.43-.16.49-.34.01-.04.02-.09.02-.13v-.34Z"/>
    <path class="st3" d="M92.98,2.54c0-.33,0-.57-.02-.78h.54l.02.46h.02c.12-.34.41-.52.68-.52.06,0,.1,0,.15.01v.58c-.05-.01-.11-.02-.18-.02-.3,0-.5.19-.56.47-.01.05-.02.12-.02.19v1.26h-.62v-1.65Z"/>
    <path class="st3" d="M95.18,3.15c.02.44.36.63.76.63.29,0,.49-.04.68-.11l.09.42c-.21.09-.5.15-.86.15-.8,0-1.27-.49-1.27-1.24,0-.67.41-1.31,1.21-1.31s1.06.65,1.06,1.19c0,.11,0,.21-.02.26h-1.65ZM96.26,2.72c0-.23-.1-.59-.51-.59-.38,0-.54.34-.57.59h1.09Z"/>
    <path class="st3" d="M99.1,3.24l-.29.95h-.64l1.1-3.37h.79l1.11,3.37h-.67l-.31-.95h-1.08ZM100.08,2.77l-.27-.83c-.07-.21-.12-.44-.17-.63h-.01c-.05.2-.1.43-.16.63l-.26.83h.88Z"/>
    <path class="st3" d="M101.59,2.48c0-.28,0-.51-.02-.72h.53l.03.36h.01c.12-.19.34-.41.76-.41.33,0,.58.18.68.45h0c.09-.13.19-.23.3-.31.14-.09.3-.14.5-.14.41,0,.82.28.82,1.06v1.43h-.61v-1.35c0-.41-.14-.64-.44-.64-.21,0-.37.15-.43.32-.02.06-.03.14-.03.21v1.46h-.61v-1.41c0-.34-.14-.58-.43-.58-.23,0-.39.18-.45.35-.02.06-.03.13-.03.2v1.44h-.61v-1.71Z"/>
    <path class="st3" d="M106.32,3.15c.02.44.36.63.76.63.29,0,.49-.04.68-.11l.09.42c-.21.09-.5.15-.86.15-.8,0-1.27-.49-1.27-1.24,0-.67.41-1.31,1.21-1.31s1.06.65,1.06,1.19c0,.11,0,.21-.02.26h-1.65ZM107.4,2.72c0-.23-.1-.59-.51-.59-.38,0-.54.34-.57.59h1.09Z"/>
    <path class="st3" d="M108.49,2.54c0-.33,0-.57-.02-.78h.54l.02.46h.02c.12-.34.41-.52.68-.52.06,0,.1,0,.15.01v.58c-.05-.01-.11-.02-.18-.02-.3,0-.5.19-.56.47-.01.05-.02.12-.02.19v1.26h-.62v-1.65Z"/>
    <path class="st3" d="M110.96,1.08c0,.18-.13.33-.36.33-.21,0-.34-.15-.34-.33,0-.19.14-.33.35-.33s.35.14.35.33ZM110.3,4.19V1.76h.62v2.44h-.62Z"/>
    <path class="st3" d="M113.4,4.12c-.13.06-.39.13-.7.13-.77,0-1.27-.49-1.27-1.25s.5-1.3,1.37-1.3c.23,0,.46.05.6.11l-.11.46c-.1-.05-.25-.1-.47-.1-.48,0-.76.34-.76.79,0,.5.33.79.76.79.21,0,.37-.05.49-.1l.08.46Z"/>
    <path class="st3" d="M115.26,4.19l-.04-.27h-.01c-.15.19-.41.33-.73.33-.5,0-.78-.35-.78-.73,0-.61.55-.93,1.46-.92v-.04c0-.16-.06-.43-.5-.42-.24,0-.49.08-.66.18l-.12-.4c.19-.11.51-.22.89-.22.79,0,1.02.49,1.02,1.03v.88c0,.22.01.44.04.59h-.56ZM115.18,3c-.44,0-.86.09-.86.46,0,.24.16.35.36.35.25,0,.43-.16.49-.34.01-.04.02-.09.02-.13v-.34Z"/>
    <path class="st3" d="M116.45,2.48c0-.28,0-.51-.02-.72h.54l.03.37h.01c.11-.19.38-.42.79-.42.43,0,.88.27.88,1.04v1.45h-.62v-1.37c0-.35-.13-.62-.47-.62-.25,0-.42.17-.49.36-.02.05-.03.13-.03.2v1.43h-.62v-1.71Z"/>
    <path class="st3" d="M119.26,3.85c0-.23.16-.4.39-.4s.38.16.38.4c0,.23-.15.4-.39.4s-.39-.17-.38-.4Z"/>
    <path class="st3" d="M1.01,7.35H.04v-.52h2.58v.52h-.98v2.86h-.62v-2.86Z"/>
    <path class="st3" d="M2.94,6.65h.62v1.45h.01c.08-.11.18-.21.31-.28.12-.07.27-.11.43-.11.42,0,.86.27.86,1.06v1.43h-.62v-1.37c0-.35-.13-.62-.47-.62-.24,0-.41.16-.48.35-.02.05-.03.12-.03.19v1.46h-.62v-3.55Z"/>
    <path class="st3" d="M6.28,9.16c.02.44.36.63.76.63.29,0,.49-.04.68-.11l.09.42c-.21.09-.5.15-.86.15-.8,0-1.27-.49-1.27-1.24,0-.67.41-1.31,1.21-1.31s1.06.65,1.06,1.19c0,.11,0,.21-.02.26h-1.65ZM7.36,8.73c0-.23-.1-.59-.51-.59-.38,0-.54.34-.57.59h1.09Z"/>
    <path class="st3" d="M9.89,7.77l.4,1.24c.07.21.12.41.17.61h.01c.05-.2.1-.39.17-.61l.39-1.24h.66l-.94,2.44h-.61l-.92-2.44h.67Z"/>
    <path class="st3" d="M13.42,10.21l-.04-.27h-.01c-.15.19-.41.33-.73.33-.5,0-.78-.35-.78-.73,0-.61.55-.93,1.46-.92v-.04c0-.16-.06-.43-.5-.42-.24,0-.49.08-.66.18l-.12-.4c.19-.11.51-.22.89-.22.79,0,1.02.49,1.02,1.03v.88c0,.22.01.44.04.59h-.56ZM13.34,9.01c-.44,0-.86.09-.86.46,0,.24.16.35.36.35.25,0,.43-.16.49-.34.01-.04.02-.09.02-.13v-.34Z"/>
    <path class="st3" d="M14.58,9.64c.14.08.41.18.63.18.27,0,.4-.11.4-.27s-.1-.25-.41-.35c-.48-.16-.68-.42-.68-.71,0-.43.36-.76.94-.76.27,0,.51.07.65.15l-.12.43c-.1-.06-.3-.14-.52-.14s-.35.11-.35.26.12.23.43.34c.45.16.66.38.66.74,0,.44-.35.77-1,.77-.3,0-.57-.07-.75-.17l.13-.45Z"/>
    <path class="st3" d="M17.43,7.07v.7h.59v.46h-.59v1.08c0,.3.08.45.32.45.11,0,.19-.01.24-.03v.47c-.08.03-.24.06-.44.06-.23,0-.42-.08-.54-.2-.13-.14-.2-.36-.2-.68v-1.15h-.35v-.46h.35v-.55l.61-.15Z"/>
    <path class="st3" d="M19.54,8.49c0-.28,0-.51-.02-.72h.53l.03.36h.01c.12-.19.34-.41.76-.41.33,0,.58.18.68.45h0c.09-.13.19-.23.3-.31.14-.09.3-.14.5-.14.41,0,.82.28.82,1.06v1.43h-.61v-1.35c0-.41-.14-.64-.44-.64-.21,0-.37.15-.43.32-.02.06-.03.14-.03.21v1.46h-.61v-1.41c0-.34-.14-.58-.43-.58-.23,0-.39.18-.45.35-.02.06-.03.13-.03.2v1.44h-.61v-1.71Z"/>
    <path class="st3" d="M25.22,10.21l-.04-.27h-.01c-.15.19-.41.33-.73.33-.5,0-.78-.35-.78-.73,0-.61.55-.93,1.46-.92v-.04c0-.16-.06-.43-.5-.42-.24,0-.49.08-.66.18l-.12-.4c.19-.11.51-.22.89-.22.79,0,1.02.49,1.02,1.03v.88c0,.22.01.44.04.59h-.56ZM25.14,9.01c-.44,0-.86.09-.86.46,0,.24.16.35.36.35.25,0,.43-.16.49-.34.01-.04.02-.09.02-.13v-.34Z"/>
    <path class="st3" d="M25.85,10.77c.2-.02.37-.07.47-.17.12-.12.16-.32.16-.85v-1.98h.62v2.16c0,.51-.1.82-.32,1.04-.21.2-.56.29-.87.29l-.06-.48ZM27.14,7.09c0,.18-.13.33-.35.33-.21,0-.34-.15-.34-.33,0-.19.14-.33.35-.33s.34.15.35.33Z"/>
    <path class="st3" d="M30.11,8.96c0,.9-.64,1.3-1.27,1.3-.7,0-1.23-.47-1.23-1.26s.53-1.29,1.28-1.29,1.23.51,1.23,1.25ZM28.25,8.99c0,.47.24.82.61.82s.61-.34.61-.83c0-.38-.17-.82-.6-.82s-.62.42-.62.83Z"/>
    <path class="st3" d="M30.62,8.55c0-.33,0-.57-.02-.78h.54l.02.46h.02c.12-.34.41-.52.68-.52.06,0,.1,0,.15.01v.58c-.05-.01-.11-.02-.18-.02-.3,0-.5.19-.56.47-.01.05-.02.12-.02.19v1.26h-.62v-1.65Z"/>
    <path class="st3" d="M33.09,7.09c0,.18-.13.33-.36.33-.21,0-.34-.15-.34-.33,0-.19.14-.33.35-.33s.35.14.35.33ZM32.43,10.21v-2.44h.62v2.44h-.62Z"/>
    <path class="st3" d="M34.44,7.07v.7h.59v.46h-.59v1.08c0,.3.08.45.32.45.11,0,.19-.01.24-.03v.47c-.08.03-.24.06-.44.06-.23,0-.42-.08-.54-.2-.13-.14-.2-.36-.2-.68v-1.15h-.35v-.46h.35v-.55l.61-.15Z"/>
    <path class="st3" d="M35.93,7.77l.44,1.31c.05.15.1.34.14.47h.01c.04-.14.08-.32.13-.48l.39-1.3h.67l-.62,1.66c-.34.91-.57,1.31-.86,1.57-.25.21-.5.29-.65.31l-.14-.52c.1-.03.24-.08.36-.17.12-.08.26-.22.34-.39.02-.04.04-.08.04-.11,0-.03,0-.06-.03-.12l-.91-2.24h.69Z"/>
    <path class="st3" d="M40.5,10.21l-.04-.27h-.01c-.15.19-.41.33-.73.33-.5,0-.78-.35-.78-.73,0-.61.55-.93,1.46-.92v-.04c0-.16-.06-.43-.5-.42-.24,0-.49.08-.66.18l-.12-.4c.19-.11.51-.22.89-.22.79,0,1.02.49,1.02,1.03v.88c0,.22.01.44.04.59h-.56ZM40.42,9.01c-.44,0-.86.09-.86.46,0,.24.16.35.36.35.25,0,.43-.16.49-.34.01-.04.02-.09.02-.13v-.34Z"/>
    <path class="st3" d="M41.69,8.55c0-.33,0-.57-.02-.78h.54l.02.46h.02c.12-.34.41-.52.68-.52.06,0,.1,0,.15.01v.58c-.05-.01-.11-.02-.18-.02-.3,0-.5.19-.56.47-.01.05-.02.12-.02.19v1.26h-.62v-1.65Z"/>
    <path class="st3" d="M43.88,9.16c.02.44.36.63.76.63.29,0,.49-.04.68-.11l.09.42c-.21.09-.5.15-.86.15-.8,0-1.27-.49-1.27-1.24,0-.67.41-1.31,1.21-1.31s1.06.65,1.06,1.19c0,.11,0,.21-.02.26h-1.65ZM44.97,8.73c0-.23-.1-.59-.51-.59-.38,0-.54.34-.57.59h1.09Z"/>
    <path class="st3" d="M47.47,7.77l.26,1.1c.06.26.11.52.16.79h.01c.05-.26.13-.53.2-.78l.32-1.11h.5l.31,1.08c.08.28.15.55.2.81h.01c.04-.26.1-.53.16-.81l.27-1.08h.61l-.77,2.44h-.58l-.3-.99c-.08-.25-.13-.48-.19-.78h-.01c-.05.3-.12.54-.19.78l-.31.99h-.58l-.73-2.44h.64Z"/>
    <path class="st3" d="M50.89,6.65h.62v1.45h.01c.08-.11.18-.21.31-.28.12-.07.27-.11.43-.11.42,0,.86.27.86,1.06v1.43h-.62v-1.37c0-.35-.13-.62-.47-.62-.24,0-.41.16-.48.35-.02.05-.03.12-.03.19v1.46h-.62v-3.55Z"/>
    <path class="st3" d="M54.45,7.09c0,.18-.13.33-.36.33-.21,0-.34-.15-.34-.33,0-.19.14-.33.35-.33s.35.14.35.33ZM53.79,10.21v-2.44h.62v2.44h-.62Z"/>
    <path class="st3" d="M55.8,7.07v.7h.59v.46h-.59v1.08c0,.3.08.45.32.45.11,0,.19-.01.24-.03v.47c-.08.03-.24.06-.44.06-.23,0-.42-.08-.54-.2-.13-.14-.2-.36-.2-.68v-1.15h-.35v-.46h.35v-.55l.61-.15Z"/>
    <path class="st3" d="M57.27,9.16c.02.44.36.63.76.63.29,0,.49-.04.68-.11l.09.42c-.21.09-.5.15-.86.15-.8,0-1.27-.49-1.27-1.24,0-.67.41-1.31,1.21-1.31s1.06.65,1.06,1.19c0,.11,0,.21-.02.26h-1.65ZM58.35,8.73c0-.23-.1-.59-.51-.59-.38,0-.54.34-.57.59h1.09Z"/>
    <path class="st3" d="M59.29,9.87c0-.23.16-.4.39-.4s.38.16.38.4c0,.23-.15.4-.39.4s-.39-.17-.38-.4Z"/>
  </g>
  <g>
    <path class="st3" d="M88.42,161.44c0,.56-.35.89-.82.89s-.79-.36-.79-.86.33-.88.81-.88.79.37.79.85ZM87.14,161.47c0,.34.18.62.47.62s.47-.28.47-.63c0-.32-.16-.62-.47-.62s-.47.29-.47.63Z"/>
    <path class="st3" d="M88.68,161.48c0-.16,0-.28-.01-.39h.27v.23h.02c.06-.17.2-.26.34-.26.03,0,.05,0,.07,0v.29s-.05,0-.09,0c-.15,0-.25.09-.28.23,0,.03,0,.06,0,.09v.63h-.31v-.83Z"/>
    <path class="st3" d="M89.91,160.74c0,.09-.07.17-.18.17-.1,0-.17-.07-.17-.17,0-.09.07-.17.17-.17s.17.07.17.17ZM89.58,162.3v-1.22h.31v1.22h-.31Z"/>
    <path class="st3" d="M91.36,161.09c0,.08-.01.18-.01.35v.69c0,.26-.05.44-.18.55-.13.11-.31.15-.48.15-.16,0-.32-.03-.43-.1l.07-.24c.08.05.21.09.36.09.2,0,.35-.11.35-.37v-.1h0c-.07.11-.2.18-.36.18-.31,0-.52-.25-.52-.59,0-.4.26-.64.56-.64.19,0,.3.09.36.19h0v-.16h.28ZM91.03,161.57s0-.06,0-.08c-.03-.11-.12-.2-.25-.2-.17,0-.3.15-.3.4,0,.21.11.38.3.38.12,0,.22-.07.25-.19,0-.03.01-.07.01-.11v-.2Z"/>
    <path class="st3" d="M92,160.74c0,.09-.07.17-.18.17-.1,0-.17-.07-.17-.17,0-.09.07-.17.17-.17s.17.07.17.17ZM91.67,162.3v-1.22h.31v1.22h-.31Z"/>
    <path class="st3" d="M92.32,161.45c0-.14,0-.26,0-.36h.27l.02.18h0c.05-.09.19-.21.39-.21s.44.14.44.52v.72h-.31v-.69c0-.17-.06-.31-.23-.31-.12,0-.21.09-.24.18,0,.03-.01.06-.01.1v.72h-.31v-.86Z"/>
    <path class="st3" d="M94.46,162.3l-.02-.14h0c-.07.1-.2.16-.36.16-.25,0-.39-.18-.39-.36,0-.31.28-.46.73-.46v-.02c0-.08-.03-.21-.25-.21-.12,0-.25.04-.33.09l-.06-.2c.09-.06.25-.11.45-.11.4,0,.51.25.51.51v.44c0,.11,0,.22.02.29h-.28ZM94.42,161.71c-.22,0-.43.04-.43.23,0,.12.08.18.18.18.12,0,.21-.08.24-.17,0-.02,0-.05,0-.07v-.17Z"/>
    <path class="st3" d="M95.05,160.53h.31v1.78h-.31v-1.78Z"/>
    <path class="st3" d="M97.35,161.09c0,.08-.01.18-.01.35v.69c0,.26-.05.44-.18.55-.13.11-.31.15-.48.15-.16,0-.32-.03-.43-.1l.07-.24c.08.05.21.09.36.09.2,0,.35-.11.35-.37v-.1h0c-.07.11-.2.18-.36.18-.31,0-.52-.25-.52-.59,0-.4.26-.64.56-.64.19,0,.3.09.36.19h0v-.16h.28ZM97.03,161.57s0-.06,0-.08c-.03-.11-.12-.2-.25-.2-.17,0-.3.15-.3.4,0,.21.11.38.3.38.12,0,.22-.07.25-.19,0-.03.01-.07.01-.11v-.2Z"/>
    <path class="st3" d="M97.66,161.48c0-.16,0-.28-.01-.39h.27v.23h.02c.06-.17.2-.26.34-.26.03,0,.05,0,.07,0v.29s-.05,0-.09,0c-.15,0-.25.09-.28.23,0,.03,0,.06,0,.09v.63h-.31v-.83Z"/>
    <path class="st3" d="M99.24,162.3l-.02-.14h0c-.07.1-.2.16-.36.16-.25,0-.39-.18-.39-.36,0-.31.28-.46.73-.46v-.02c0-.08-.03-.21-.25-.21-.12,0-.25.04-.33.09l-.06-.2c.09-.06.25-.11.45-.11.4,0,.51.25.51.51v.44c0,.11,0,.22.02.29h-.28ZM99.19,161.71c-.22,0-.43.04-.43.23,0,.12.08.18.18.18.12,0,.21-.08.24-.17,0-.02,0-.05,0-.07v-.17Z"/>
    <path class="st3" d="M99.83,161.49c0-.16,0-.29-.01-.4h.27l.02.19h0c.09-.14.23-.21.42-.21.28,0,.52.24.52.62,0,.44-.28.65-.56.65-.15,0-.28-.06-.35-.16h0v.63h-.31v-1.31ZM100.14,161.79s0,.06,0,.08c.03.12.14.21.27.21.2,0,.31-.16.31-.4,0-.22-.11-.39-.31-.39-.13,0-.25.09-.28.23,0,.03-.01.05-.01.08v.19Z"/>
    <path class="st3" d="M101.31,160.53h.31v.72h0c.04-.06.09-.11.15-.14.06-.03.14-.05.21-.05.21,0,.43.14.43.53v.72h-.31v-.68c0-.18-.06-.31-.24-.31-.12,0-.21.08-.24.17-.01.03-.01.06-.01.09v.73h-.31v-1.78Z"/>
    <path class="st3" d="M103.27,162.3c0-.08.01-.22.01-.34v-1.43h.31v.73h0c.08-.12.21-.2.39-.2.3,0,.52.25.51.62,0,.44-.28.66-.56.66-.16,0-.3-.06-.39-.21h0v.18h-.28ZM103.59,161.8s0,.05,0,.07c.03.12.14.22.28.22.2,0,.31-.15.31-.4,0-.21-.1-.39-.31-.39-.13,0-.24.09-.28.22,0,.02-.01.05-.01.08v.2Z"/>
    <path class="st3" d="M104.93,161.09l.22.65c.02.08.05.17.07.24h0c.02-.07.04-.16.07-.24l.19-.65h.33l-.31.83c-.17.45-.28.66-.43.78-.12.11-.25.15-.33.16l-.07-.26c.05-.01.12-.04.18-.08.06-.04.13-.11.17-.19.01-.02.02-.04.02-.05,0-.01,0-.03-.02-.06l-.45-1.12h.34Z"/>
    <path class="st3" d="M106.84,162.3l-.55-1.69h.34l.23.77c.07.21.12.41.17.61h0c.05-.2.11-.4.17-.61l.25-.77h.33l-.59,1.69h-.36Z"/>
    <path class="st3" d="M108.56,162.3l-.02-.14h0c-.07.1-.2.16-.36.16-.25,0-.39-.18-.39-.36,0-.31.28-.46.73-.46v-.02c0-.08-.03-.21-.25-.21-.12,0-.25.04-.33.09l-.06-.2c.09-.06.25-.11.45-.11.4,0,.51.25.51.51v.44c0,.11,0,.22.02.29h-.28ZM108.51,161.71c-.22,0-.43.04-.43.23,0,.12.08.18.18.18.12,0,.21-.08.24-.17,0-.02,0-.05,0-.07v-.17Z"/>
    <path class="st3" d="M109.15,161.48c0-.16,0-.28-.01-.39h.27v.23h.02c.06-.17.2-.26.34-.26.03,0,.05,0,.07,0v.29s-.05,0-.09,0c-.15,0-.25.09-.28.23,0,.03,0,.06,0,.09v.63h-.31v-.83Z"/>
    <path class="st3" d="M111.15,161.94c0,.14,0,.27,0,.37h-.27l-.02-.18h0c-.05.09-.17.21-.4.21s-.43-.13-.43-.53v-.71h.31v.66c0,.2.06.33.23.33.12,0,.21-.09.24-.16.01-.03.02-.06.02-.1v-.74h.31v.85Z"/>
    <path class="st3" d="M111.48,161.45c0-.14,0-.26,0-.36h.27l.02.18h0c.05-.09.19-.21.39-.21s.44.14.44.52v.72h-.31v-.69c0-.17-.06-.31-.24-.31-.12,0-.21.09-.24.18,0,.03-.01.06-.01.1v.72h-.31v-.86Z"/>
    <path class="st3" d="M113.81,160.62h.31v1.09c0,.47-.23.62-.57.62-.09,0-.2-.02-.26-.04l.04-.25s.12.03.19.03c.18,0,.29-.08.29-.37v-1.08Z"/>
    <path class="st3" d="M115.13,162.3l-.02-.14h0c-.07.1-.2.16-.36.16-.25,0-.39-.18-.39-.36,0-.31.28-.46.73-.46v-.02c0-.08-.03-.21-.25-.21-.12,0-.25.04-.33.09l-.06-.2c.09-.06.25-.11.45-.11.4,0,.51.25.51.51v.44c0,.11,0,.22.02.29h-.28ZM115.09,161.71c-.22,0-.43.04-.43.23,0,.12.08.18.18.18.12,0,.21-.08.24-.17,0-.02,0-.05,0-.07v-.17Z"/>
    <path class="st3" d="M116.05,160.74c0,.09-.07.17-.18.17-.1,0-.17-.07-.17-.17,0-.09.07-.17.17-.17s.17.07.17.17ZM115.72,162.3v-1.22h.31v1.22h-.31Z"/>
    <path class="st3" d="M116.37,161.45c0-.14,0-.26,0-.36h.27l.02.18h0c.05-.09.19-.21.39-.21s.44.14.44.52v.72h-.31v-.69c0-.17-.06-.31-.24-.31-.12,0-.21.09-.24.18,0,.03-.01.06-.01.1v.72h-.31v-.86Z"/>
    <path class="st3" d="M117.78,162.13c0-.12.08-.2.19-.2s.19.08.19.2c0,.11-.08.2-.19.2s-.19-.08-.19-.2Z"/>
    <path class="st3" d="M86.8,164.25c.07-.23.18-.49.27-.64l.19-.02c-.07.18-.13.43-.16.63l-.3.02ZM87.24,164.25c.07-.23.18-.49.27-.64l.19-.02c-.07.18-.13.43-.16.63l-.3.02Z"/>
    <path class="st3" d="M87.94,163.65c.12-.02.29-.04.47-.04.24,0,.41.04.53.14.09.08.15.19.15.34,0,.22-.15.37-.31.42h0c.12.05.2.17.24.33.05.21.1.4.13.47h-.32s-.07-.19-.12-.4c-.05-.22-.13-.29-.31-.3h-.16v.69h-.31v-1.66ZM88.25,164.39h.18c.21,0,.34-.11.34-.28,0-.18-.13-.27-.33-.27-.1,0-.16,0-.19.02v.53Z"/>
    <path class="st3" d="M89.59,164.79c0,.22.18.32.38.32.14,0,.25-.02.34-.06l.05.21c-.11.04-.25.08-.43.08-.4,0-.64-.24-.64-.62,0-.34.21-.65.6-.65s.53.33.53.59c0,.06,0,.1-.01.13h-.82ZM90.13,164.57c0-.11-.05-.3-.26-.3-.19,0-.27.17-.29.3h.54Z"/>
    <path class="st3" d="M90.68,164.45c0-.14,0-.26,0-.36h.27v.18h.02c.06-.09.17-.21.38-.21.16,0,.29.09.34.22h0c.04-.07.09-.12.15-.15.07-.05.15-.07.25-.07.2,0,.41.14.41.53v.72h-.3v-.67c0-.2-.07-.32-.22-.32-.11,0-.18.07-.22.16,0,.03-.02.07-.02.1v.73h-.3v-.7c0-.17-.07-.29-.21-.29-.12,0-.19.09-.22.17-.01.03-.02.07-.02.1v.72h-.3v-.86Z"/>
    <path class="st3" d="M93.15,163.75c0,.09-.07.17-.18.17-.1,0-.17-.07-.17-.17,0-.09.07-.17.17-.17s.17.07.17.17ZM92.82,165.31v-1.22h.31v1.22h-.31Z"/>
    <path class="st3" d="M93.68,164.09l.15.23c.04.07.08.13.11.19h0c.04-.07.07-.13.11-.19l.14-.23h.34l-.41.58.42.63h-.35l-.15-.24c-.04-.07-.08-.13-.11-.2h0c-.04.07-.07.13-.11.2l-.14.24h-.34l.43-.62-.41-.6h.35Z"/>
    <path class="st3" d="M94.89,164.79c0,.22.18.32.38.32.14,0,.25-.02.34-.06l.05.21c-.11.04-.25.08-.43.08-.4,0-.64-.24-.64-.62,0-.34.21-.65.6-.65s.53.33.53.59c0,.06,0,.1-.01.13h-.82ZM95.44,164.57c0-.11-.05-.3-.26-.3-.19,0-.27.17-.29.3h.54Z"/>
    <path class="st3" d="M97.12,163.53v1.43c0,.12,0,.26.01.34h-.28v-.19h-.02c-.07.14-.22.22-.4.22-.29,0-.53-.25-.53-.62,0-.41.26-.65.55-.65.17,0,.29.07.35.16h0v-.69h.31ZM96.8,164.6s0-.05,0-.08c-.03-.12-.13-.22-.27-.22-.2,0-.31.18-.31.4s.11.39.31.39c.13,0,.24-.09.27-.22,0-.03,0-.06,0-.09v-.18Z"/>
    <path class="st3" d="M97.83,163.6c-.07.23-.18.48-.27.64l-.19.02c.07-.18.13-.43.16-.64l.3-.02ZM98.27,163.6c-.07.23-.18.48-.27.64l-.19.02c.07-.18.13-.43.16-.64l.3-.02Z"/>
    <path class="st3" d="M98.82,165.31c0-.08.01-.22.01-.34v-1.43h.31v.73h0c.08-.12.21-.2.39-.2.3,0,.52.25.51.62,0,.44-.28.66-.56.66-.16,0-.3-.06-.39-.21h0v.18h-.28ZM99.14,164.81s0,.05,0,.07c.03.12.14.22.28.22.2,0,.31-.15.31-.4,0-.21-.1-.39-.31-.39-.13,0-.24.09-.28.22,0,.02-.01.05-.01.08v.2Z"/>
    <path class="st3" d="M100.48,164.09l.22.65c.02.08.05.17.07.24h0c.02-.07.04-.16.07-.24l.19-.65h.33l-.31.83c-.17.45-.28.66-.43.78-.12.11-.25.15-.33.16l-.07-.26c.05-.01.12-.04.18-.08.06-.04.13-.11.17-.19.01-.02.02-.04.02-.05,0-.01,0-.03-.02-.06l-.45-1.12h.34Z"/>
    <path class="st3" d="M102.09,165.31v-1.69h.36l.44.72c.11.19.21.38.29.57h0c-.02-.23-.03-.44-.03-.7v-.59h.29v1.69h-.32l-.45-.74c-.11-.18-.22-.39-.31-.58h0c.01.22.02.44.02.72v.6h-.29Z"/>
    <path class="st3" d="M104.48,165.31l-.02-.14h0c-.07.1-.2.16-.36.16-.25,0-.39-.18-.39-.36,0-.31.28-.46.73-.46v-.02c0-.08-.03-.21-.25-.21-.12,0-.25.04-.33.09l-.06-.2c.09-.06.25-.11.45-.11.4,0,.51.25.51.51v.44c0,.11,0,.22.02.29h-.28ZM104.44,164.71c-.22,0-.43.04-.43.23,0,.12.08.18.18.18.12,0,.21-.08.24-.17,0-.02,0-.05,0-.07v-.17Z"/>
    <path class="st3" d="M105.42,163.74v.35h.3v.23h-.3v.54c0,.15.04.22.16.22.05,0,.09,0,.12-.01v.23s-.12.03-.22.03c-.11,0-.21-.04-.27-.1-.07-.07-.1-.18-.1-.34v-.57h-.18v-.23h.18v-.28l.31-.07Z"/>
    <path class="st3" d="M106.64,165.31l-.02-.14h0c-.07.1-.2.16-.36.16-.25,0-.39-.18-.39-.36,0-.31.28-.46.73-.46v-.02c0-.08-.03-.21-.25-.21-.12,0-.25.04-.33.09l-.06-.2c.09-.06.25-.11.45-.11.4,0,.51.25.51.51v.44c0,.11,0,.22.02.29h-.28ZM106.6,164.71c-.22,0-.43.04-.43.23,0,.12.08.18.18.18.12,0,.21-.08.24-.17,0-.02,0-.05,0-.07v-.17Z"/>
    <path class="st3" d="M107.23,163.53h.31v1.78h-.31v-1.78Z"/>
    <path class="st3" d="M108.21,163.75c0,.09-.07.17-.18.17-.1,0-.17-.07-.17-.17,0-.09.07-.17.17-.17s.17.07.17.17ZM107.88,165.31v-1.22h.31v1.22h-.31Z"/>
    <path class="st3" d="M108.75,164.79c0,.22.18.32.38.32.14,0,.25-.02.34-.06l.05.21c-.11.04-.25.08-.43.08-.4,0-.64-.24-.64-.62,0-.34.21-.65.6-.65s.53.33.53.59c0,.06,0,.1-.01.13h-.82ZM109.29,164.57c0-.11-.05-.3-.26-.3-.19,0-.27.17-.29.3h.54Z"/>
    <path class="st3" d="M110.71,163.62h.31v1.09c0,.47-.23.62-.57.62-.09,0-.2-.02-.26-.04l.04-.25s.12.03.19.03c.18,0,.29-.08.29-.37v-1.08Z"/>
    <path class="st3" d="M112.53,164.69c0,.45-.32.65-.63.65-.35,0-.62-.24-.62-.63s.27-.65.64-.65.61.26.61.62ZM111.6,164.7c0,.23.12.41.31.41.18,0,.3-.17.3-.42,0-.19-.09-.41-.3-.41s-.31.21-.31.41Z"/>
    <path class="st3" d="M112.78,164.45c0-.14,0-.26,0-.36h.27l.02.18h0c.05-.09.19-.21.39-.21s.44.14.44.52v.72h-.31v-.69c0-.17-.06-.31-.24-.31-.12,0-.21.09-.24.18,0,.03-.01.06-.01.1v.72h-.31v-.86Z"/>
    <path class="st3" d="M114.92,165.31l-.02-.14h0c-.07.1-.2.16-.36.16-.25,0-.39-.18-.39-.36,0-.31.28-.46.73-.46v-.02c0-.08-.03-.21-.25-.21-.12,0-.25.04-.33.09l-.06-.2c.09-.06.25-.11.45-.11.4,0,.51.25.51.51v.44c0,.11,0,.22.02.29h-.28ZM114.88,164.71c-.22,0-.43.04-.43.23,0,.12.08.18.18.18.12,0,.21-.08.24-.17,0-.02,0-.05,0-.07v-.17Z"/>
    <path class="st3" d="M115.5,165.03c.07.04.2.09.31.09.14,0,.2-.06.2-.14s-.05-.12-.2-.18c-.24-.08-.34-.21-.34-.36,0-.21.18-.38.47-.38.14,0,.25.03.33.07l-.06.22c-.05-.03-.15-.07-.26-.07s-.17.05-.17.13.06.11.22.17c.22.08.33.19.33.37,0,.22-.18.38-.5.38-.15,0-.28-.04-.38-.08l.06-.22Z"/>
  </g>
  <text class="st6" transform="translate(2.56 15.15) scale(1.01 1)"><tspan x="0" y="0">Most female astronauts are still white women from the U.S.. Representation from Indian, Hispanic and Middle </tspan><tspan x="0" y="3.01">Eastern women lags far behind.</tspan></text>
</svg>