<?xml version="1.0" encoding="UTF-8"?>
<svg id="Layer_1" xmlns="http://www.w3.org/2000/svg" xmlns:xlink="http://www.w3.org/1999/xlink" version="1.1" viewBox="0 0 98.54 59.03">
  <!-- Generator: Adobe Illustrator 30.3.0, SVG Export Plug-In . SVG Version: 2.1.3 Build 182)  -->
  <defs>
    <style>
      .st0 {
        fill: none;
      }

      .st1, .st2 {
        fill: #6d767e;
        font-size: 2.47px;
      }

      .st1, .st2, .st3, .st4 {
        font-family: TrebuchetMS-Bold, 'Trebuchet MS';
        font-weight: 700;
      }

      .st5, .st6 {
        fill: #231f20;
      }

      .st6 {
        font-family: MyriadPro-Regular, 'Myriad Pro';
        font-size: 2px;
      }

      .st7 {
        clip-path: url(#clippath-1);
      }

      .st8 {
        clip-path: url(#clippath-3);
      }

      .st9 {
        clip-path: url(#clippath-4);
      }

      .st10 {
        clip-path: url(#clippath-2);
      }

      .st11 {
        clip-path: url(#clippath-5);
      }

      .st12, .st13, .st3, .st4 {
        fill: #faa31a;
      }

      .st2 {
        letter-spacing: 2.7em;
      }

      .st13 {
        opacity: .31;
      }

      .st3, .st4 {
        font-size: 2.26px;
      }

      .st14 {
        clip-path: url(#clippath);
      }

      .st4 {
        letter-spacing: 2.97em;
      }
    </style>
    <clipPath id="clippath">
      <rect class="st0" x="29.01" y="12.87" width="65.21" height="38.88"/>
    </clipPath>
    <clipPath id="clippath-1">
      <rect class="st0" x="29.01" y="12.87" width="65.21" height="38.88"/>
    </clipPath>
    <clipPath id="clippath-2">
      <rect class="st0" x="29.01" y="12.87" width="65.21" height="38.88"/>
    </clipPath>
    <clipPath id="clippath-3">
      <rect class="st0" x="29.01" y="12.87" width="65.21" height="38.88"/>
    </clipPath>
    <clipPath id="clippath-4">
      <rect class="st0" x="29.01" y="12.87" width="65.21" height="38.88"/>
    </clipPath>
    <clipPath id="clippath-5">
      <rect class="st0" y="12.67" width="29.21" height="39.29"/>
    </clipPath>
  </defs>
  <g class="st14">
    <rect class="st13" x="29.01" y="47.43" width="36.41" height="3.09"/>
    <rect class="st13" x="29.01" y="36.32" width="3.5" height="3.09"/>
    <rect class="st13" x="29.01" y="30.77" width="6.17" height="3.09"/>
    <rect class="st13" x="29.01" y="25.22" width="6.58" height="3.09"/>
    <rect class="st13" x="29.01" y="19.66" width="23.04" height="3.09"/>
    <rect class="st13" x="29.01" y="14.11" width="14.19" height="3.09"/>
    <rect class="st13" x="29.01" y="41.88" width=".21" height="3.09"/>
  </g>
  <g class="st7">
    <rect class="st13" x="29.01" y="47.43" width="36.41" height="3.09"/>
    <rect class="st13" x="29.01" y="36.32" width="3.5" height="3.09"/>
    <rect class="st13" x="29.01" y="30.77" width="6.17" height="3.09"/>
    <rect class="st13" x="29.01" y="25.22" width="6.58" height="3.09"/>
    <rect class="st13" x="29.01" y="19.66" width="23.04" height="3.09"/>
    <rect class="st13" x="29.01" y="14.11" width="14.19" height="3.09"/>
    <rect class="st13" x="29.01" y="41.88" width=".21" height="3.09"/>
  </g>
  <g class="st10">
    <text class="st4" transform="translate(44.02 16.37)"><tspan x="0" y="0">	</tspan></text>
    <text class="st3" transform="translate(44.7 16.37)"><tspan x="0" y="0">3</tspan></text>
    <text class="st3" transform="translate(46.03 16.37)"><tspan x="0" y="0">1</tspan></text>
    <text class="st3" transform="translate(47.35 16.37)"><tspan x="0" y="0">6</tspan></text>
    <text class="st3" transform="translate(48.68 16.37)"><tspan x="0" y="0">7</tspan></text>
    <text class="st4" transform="translate(50 16.37)"><tspan x="0" y="0">	</tspan></text>
    <text class="st3" transform="translate(50.68 16.37)"><tspan x="0" y="0">d</tspan></text>
    <text class="st3" transform="translate(51.99 16.37)"><tspan x="0" y="0">a</tspan></text>
    <text class="st3" transform="translate(53.2 16.37)"><tspan x="0" y="0">y</tspan></text>
    <text class="st3" transform="translate(54.4 16.37)"><tspan x="0" y="0">s</tspan></text>
    <text class="st4" transform="translate(52.87 21.92)"><tspan x="0" y="0">	</tspan></text>
    <text class="st3" transform="translate(53.55 21.92)"><tspan x="0" y="0">5</tspan></text>
    <text class="st3" transform="translate(54.87 21.92)"><tspan x="0" y="0">1</tspan></text>
    <text class="st3" transform="translate(56.2 21.92)"><tspan x="0" y="0">1</tspan></text>
    <text class="st3" transform="translate(57.52 21.92)"><tspan x="0" y="0">5</tspan></text>
    <text class="st4" transform="translate(58.85 21.92)"><tspan x="0" y="0">	</tspan></text>
    <text class="st3" transform="translate(59.53 21.92)"><tspan x="0" y="0">d</tspan></text>
    <text class="st3" transform="translate(60.84 21.92)"><tspan x="0" y="0">a</tspan></text>
    <text class="st3" transform="translate(62.05 21.92)"><tspan x="0" y="0">y</tspan></text>
    <text class="st3" transform="translate(63.25 21.92)"><tspan x="0" y="0">s</tspan></text>
    <text class="st4" transform="translate(36.41 27.48)"><tspan x="0" y="0">	</tspan></text>
    <text class="st3" transform="translate(37.09 27.48)"><tspan x="0" y="0">1</tspan></text>
    <text class="st3" transform="translate(38.42 27.48)"><tspan x="0" y="0">4</tspan></text>
    <text class="st3" transform="translate(39.74 27.48)"><tspan x="0" y="0">5</tspan></text>
    <text class="st3" transform="translate(41.07 27.48)"><tspan x="0" y="0">4</tspan></text>
    <text class="st4" transform="translate(42.39 27.48)"><tspan x="0" y="0">	</tspan></text>
    <text class="st3" transform="translate(43.07 27.48)"><tspan x="0" y="0">d</tspan></text>
    <text class="st3" transform="translate(44.38 27.48)"><tspan x="0" y="0">a</tspan></text>
    <text class="st3" transform="translate(45.59 27.48)"><tspan x="0" y="0">y</tspan></text>
    <text class="st3" transform="translate(46.79 27.48)"><tspan x="0" y="0">s</tspan></text>
    <text class="st4" transform="translate(36 33.03)"><tspan x="0" y="0">	</tspan></text>
    <text class="st3" transform="translate(36.68 33.03)"><tspan x="0" y="0">1</tspan></text>
    <text class="st3" transform="translate(38.01 33.03)"><tspan x="0" y="0">3</tspan></text>
    <text class="st3" transform="translate(39.33 33.03)"><tspan x="0" y="0">8</tspan></text>
    <text class="st3" transform="translate(40.65 33.03)"><tspan x="0" y="0">0</tspan></text>
    <text class="st4" transform="translate(41.98 33.03)"><tspan x="0" y="0">	</tspan></text>
    <text class="st3" transform="translate(42.66 33.03)"><tspan x="0" y="0">d</tspan></text>
    <text class="st3" transform="translate(43.97 33.03)"><tspan x="0" y="0">a</tspan></text>
    <text class="st3" transform="translate(45.18 33.03)"><tspan x="0" y="0">y</tspan></text>
    <text class="st3" transform="translate(46.38 33.03)"><tspan x="0" y="0">s</tspan></text>
    <text class="st4" transform="translate(66.24 49.7)"><tspan x="0" y="0">	</tspan></text>
    <text class="st3" transform="translate(66.92 49.7)"><tspan x="0" y="0">8</tspan></text>
    <text class="st3" transform="translate(68.25 49.7)"><tspan x="0" y="0">0</tspan></text>
    <text class="st3" transform="translate(69.57 49.7)"><tspan x="0" y="0">7</tspan></text>
    <text class="st3" transform="translate(70.89 49.7)"><tspan x="0" y="0">9</tspan></text>
    <text class="st4" transform="translate(72.22 49.7)"><tspan x="0" y="0">	</tspan></text>
    <text class="st3" transform="translate(72.9 49.7)"><tspan x="0" y="0">d</tspan></text>
    <text class="st3" transform="translate(74.21 49.7)"><tspan x="0" y="0">a</tspan></text>
    <text class="st3" transform="translate(75.42 49.7)"><tspan x="0" y="0">y</tspan></text>
    <text class="st3" transform="translate(76.62 49.7)"><tspan x="0" y="0">s</tspan></text>
    <text class="st4" transform="translate(33.33 38.59)"><tspan x="0" y="0">	</tspan></text>
    <text class="st3" transform="translate(34.01 38.59)"><tspan x="0" y="0">7</tspan></text>
    <text class="st3" transform="translate(35.33 38.59)"><tspan x="0" y="0">9</tspan></text>
    <text class="st3" transform="translate(36.66 38.59)"><tspan x="0" y="0">5</tspan></text>
    <text class="st4" transform="translate(37.98 38.59)"><tspan x="0" y="0">	</tspan></text>
    <text class="st3" transform="translate(38.66 38.59)"><tspan x="0" y="0">d</tspan></text>
    <text class="st3" transform="translate(39.97 38.59)"><tspan x="0" y="0">a</tspan></text>
    <text class="st3" transform="translate(41.18 38.59)"><tspan x="0" y="0">y</tspan></text>
    <text class="st3" transform="translate(42.38 38.59)"><tspan x="0" y="0">s</tspan></text>
    <text class="st4" transform="translate(30.24 44.14)"><tspan x="0" y="0">	</tspan></text>
    <text class="st3" transform="translate(30.92 44.14)"><tspan x="0" y="0">N</tspan></text>
    <text class="st3" transform="translate(32.43 44.14)"><tspan x="0" y="0">/</tspan></text>
    <text class="st3" transform="translate(33.31 44.14)"><tspan x="0" y="0">A</tspan></text>
  </g>
  <g class="st8">
    <rect class="st13" x="29.01" y="47.43" width="36.41" height="3.09"/>
    <rect class="st13" x="29.01" y="36.32" width="3.5" height="3.09"/>
    <rect class="st13" x="29.01" y="30.77" width="6.17" height="3.09"/>
    <rect class="st13" x="29.01" y="25.22" width="6.58" height="3.09"/>
    <rect class="st13" x="29.01" y="19.66" width="23.04" height="3.09"/>
    <rect class="st13" x="29.01" y="14.11" width="14.19" height="3.09"/>
    <rect class="st13" x="29.01" y="41.88" width=".21" height="3.09"/>
  </g>
  <g class="st9">
    <text class="st4" transform="translate(44.02 16.37)"><tspan x="0" y="0">	</tspan></text>
    <text class="st3" transform="translate(44.7 16.37)"><tspan x="0" y="0">3</tspan></text>
    <text class="st3" transform="translate(46.03 16.37)"><tspan x="0" y="0">1</tspan></text>
    <text class="st3" transform="translate(47.35 16.37)"><tspan x="0" y="0">6</tspan></text>
    <text class="st3" transform="translate(48.68 16.37)"><tspan x="0" y="0">7</tspan></text>
    <text class="st4" transform="translate(50 16.37)"><tspan x="0" y="0">	</tspan></text>
    <text class="st3" transform="translate(50.68 16.37)"><tspan x="0" y="0">d</tspan></text>
    <text class="st3" transform="translate(51.99 16.37)"><tspan x="0" y="0">a</tspan></text>
    <text class="st3" transform="translate(53.2 16.37)"><tspan x="0" y="0">y</tspan></text>
    <text class="st3" transform="translate(54.4 16.37)"><tspan x="0" y="0">s</tspan></text>
    <text class="st4" transform="translate(52.87 21.92)"><tspan x="0" y="0">	</tspan></text>
    <text class="st3" transform="translate(53.55 21.92)"><tspan x="0" y="0">5</tspan></text>
    <text class="st3" transform="translate(54.87 21.92)"><tspan x="0" y="0">1</tspan></text>
    <text class="st3" transform="translate(56.2 21.92)"><tspan x="0" y="0">1</tspan></text>
    <text class="st3" transform="translate(57.52 21.92)"><tspan x="0" y="0">5</tspan></text>
    <text class="st4" transform="translate(58.85 21.92)"><tspan x="0" y="0">	</tspan></text>
    <text class="st3" transform="translate(59.53 21.92)"><tspan x="0" y="0">d</tspan></text>
    <text class="st3" transform="translate(60.84 21.92)"><tspan x="0" y="0">a</tspan></text>
    <text class="st3" transform="translate(62.05 21.92)"><tspan x="0" y="0">y</tspan></text>
    <text class="st3" transform="translate(63.25 21.92)"><tspan x="0" y="0">s</tspan></text>
    <text class="st4" transform="translate(36.41 27.48)"><tspan x="0" y="0">	</tspan></text>
    <text class="st3" transform="translate(37.09 27.48)"><tspan x="0" y="0">1</tspan></text>
    <text class="st3" transform="translate(38.42 27.48)"><tspan x="0" y="0">4</tspan></text>
    <text class="st3" transform="translate(39.74 27.48)"><tspan x="0" y="0">5</tspan></text>
    <text class="st3" transform="translate(41.07 27.48)"><tspan x="0" y="0">4</tspan></text>
    <text class="st4" transform="translate(42.39 27.48)"><tspan x="0" y="0">	</tspan></text>
    <text class="st3" transform="translate(43.07 27.48)"><tspan x="0" y="0">d</tspan></text>
    <text class="st3" transform="translate(44.38 27.48)"><tspan x="0" y="0">a</tspan></text>
    <text class="st3" transform="translate(45.59 27.48)"><tspan x="0" y="0">y</tspan></text>
    <text class="st3" transform="translate(46.79 27.48)"><tspan x="0" y="0">s</tspan></text>
    <text class="st4" transform="translate(36 33.03)"><tspan x="0" y="0">	</tspan></text>
    <text class="st3" transform="translate(36.68 33.03)"><tspan x="0" y="0">1</tspan></text>
    <text class="st3" transform="translate(38.01 33.03)"><tspan x="0" y="0">3</tspan></text>
    <text class="st3" transform="translate(39.33 33.03)"><tspan x="0" y="0">8</tspan></text>
    <text class="st3" transform="translate(40.65 33.03)"><tspan x="0" y="0">0</tspan></text>
    <text class="st4" transform="translate(41.98 33.03)"><tspan x="0" y="0">	</tspan></text>
    <text class="st3" transform="translate(42.66 33.03)"><tspan x="0" y="0">d</tspan></text>
    <text class="st3" transform="translate(43.97 33.03)"><tspan x="0" y="0">a</tspan></text>
    <text class="st3" transform="translate(45.18 33.03)"><tspan x="0" y="0">y</tspan></text>
    <text class="st3" transform="translate(46.38 33.03)"><tspan x="0" y="0">s</tspan></text>
    <text class="st4" transform="translate(66.24 49.7)"><tspan x="0" y="0">	</tspan></text>
    <text class="st3" transform="translate(66.92 49.7)"><tspan x="0" y="0">8</tspan></text>
    <text class="st3" transform="translate(68.25 49.7)"><tspan x="0" y="0">0</tspan></text>
    <text class="st3" transform="translate(69.57 49.7)"><tspan x="0" y="0">7</tspan></text>
    <text class="st3" transform="translate(70.89 49.7)"><tspan x="0" y="0">9</tspan></text>
    <text class="st4" transform="translate(72.22 49.7)"><tspan x="0" y="0">	</tspan></text>
    <text class="st3" transform="translate(72.9 49.7)"><tspan x="0" y="0">d</tspan></text>
    <text class="st3" transform="translate(74.21 49.7)"><tspan x="0" y="0">a</tspan></text>
    <text class="st3" transform="translate(75.42 49.7)"><tspan x="0" y="0">y</tspan></text>
    <text class="st3" transform="translate(76.62 49.7)"><tspan x="0" y="0">s</tspan></text>
    <text class="st4" transform="translate(33.33 38.59)"><tspan x="0" y="0">	</tspan></text>
    <text class="st3" transform="translate(34.01 38.59)"><tspan x="0" y="0">7</tspan></text>
    <text class="st3" transform="translate(35.33 38.59)"><tspan x="0" y="0">9</tspan></text>
    <text class="st3" transform="translate(36.66 38.59)"><tspan x="0" y="0">5</tspan></text>
    <text class="st4" transform="translate(37.98 38.59)"><tspan x="0" y="0">	</tspan></text>
    <text class="st3" transform="translate(38.66 38.59)"><tspan x="0" y="0">d</tspan></text>
    <text class="st3" transform="translate(39.97 38.59)"><tspan x="0" y="0">a</tspan></text>
    <text class="st3" transform="translate(41.18 38.59)"><tspan x="0" y="0">y</tspan></text>
    <text class="st3" transform="translate(42.38 38.59)"><tspan x="0" y="0">s</tspan></text>
    <text class="st4" transform="translate(30.24 44.14)"><tspan x="0" y="0">	</tspan></text>
    <text class="st3" transform="translate(30.92 44.14)"><tspan x="0" y="0">N</tspan></text>
    <text class="st3" transform="translate(32.43 44.14)"><tspan x="0" y="0">/</tspan></text>
    <text class="st3" transform="translate(33.31 44.14)"><tspan x="0" y="0">A</tspan></text>
  </g>
  <g class="st11">
    <text class="st1" transform="translate(21.29 16.58)"><tspan x="0" y="0">C</tspan></text>
    <text class="st1" transform="translate(22.8 16.58)"><tspan x="0" y="0">h</tspan></text>
    <text class="st1" transform="translate(24.26 16.58)"><tspan x="0" y="0">i</tspan></text>
    <text class="st1" transform="translate(25 16.58)"><tspan x="0" y="0">n</tspan></text>
    <text class="st1" transform="translate(26.46 16.58)"><tspan x="0" y="0">a</tspan></text>
    <text class="st1" transform="translate(20.03 22.13)"><tspan x="0" y="0">F</tspan></text>
    <text class="st1" transform="translate(21.47 22.13)"><tspan x="0" y="0">r</tspan></text>
    <text class="st1" transform="translate(22.53 22.13)"><tspan x="0" y="0">a</tspan></text>
    <text class="st1" transform="translate(23.84 22.13)"><tspan x="0" y="0">n</tspan></text>
    <text class="st1" transform="translate(25.3 22.13)"><tspan x="0" y="0">c</tspan></text>
    <text class="st1" transform="translate(26.56 22.13)"><tspan x="0" y="0">e</tspan></text>
    <text class="st1" transform="translate(17.44 27.68)"><tspan x="0" y="0">G</tspan></text>
    <text class="st1" transform="translate(19.09 27.68)"><tspan x="0" y="0">e</tspan></text>
    <text class="st1" transform="translate(20.51 27.68)"><tspan x="0" y="0">r</tspan></text>
    <text class="st1" transform="translate(21.56 27.68)"><tspan x="0" y="0">m</tspan></text>
    <text class="st1" transform="translate(23.69 27.68)"><tspan x="0" y="0">a</tspan></text>
    <text class="st1" transform="translate(25 27.68)"><tspan x="0" y="0">n</tspan></text>
    <text class="st1" transform="translate(26.46 27.68)"><tspan x="0" y="0">y</tspan></text>
    <text class="st1" transform="translate(21.14 33.24)"><tspan x="0" y="0">J</tspan></text>
    <text class="st1" transform="translate(22.45 33.24)"><tspan x="0" y="0">a</tspan></text>
    <text class="st1" transform="translate(23.77 33.24)"><tspan x="0" y="0">p</tspan></text>
    <text class="st1" transform="translate(25.21 33.24)"><tspan x="0" y="0">a</tspan></text>
    <text class="st1" transform="translate(26.52 33.24)"><tspan x="0" y="0">n</tspan></text>
    <text class="st1" transform="translate(3.85 38.79)"><tspan x="0" y="0">R</tspan></text>
    <text class="st1" transform="translate(5.36 38.79)"><tspan x="0" y="0">u</tspan></text>
    <text class="st1" transform="translate(6.81 38.79)"><tspan x="0" y="0">s</tspan></text>
    <text class="st1" transform="translate(7.87 38.79)"><tspan x="0" y="0">s</tspan></text>
    <text class="st1" transform="translate(8.94 38.79)"><tspan x="0" y="0">i</tspan></text>
    <text class="st1" transform="translate(9.67 38.79)"><tspan x="0" y="0">a</tspan></text>
    <text class="st2" transform="translate(10.99 38.79)"><tspan x="0" y="0">	</tspan></text>
    <text class="st1" transform="translate(11.73 38.79)"><tspan x="0" y="0">/</tspan></text>
    <text class="st2" transform="translate(12.69 38.79)"><tspan x="0" y="0">	</tspan></text>
    <text class="st1" transform="translate(13.43 38.79)"><tspan x="0" y="0">S</tspan></text>
    <text class="st1" transform="translate(14.69 38.79)"><tspan x="0" y="0">o</tspan></text>
    <text class="st1" transform="translate(16.09 38.79)"><tspan x="0" y="0">v</tspan></text>
    <text class="st1" transform="translate(17.39 38.79)"><tspan x="0" y="0">i</tspan></text>
    <text class="st1" transform="translate(18.13 38.79)"><tspan x="0" y="0">e</tspan></text>
    <text class="st1" transform="translate(19.54 38.79)"><tspan x="0" y="0">t</tspan></text>
    <text class="st2" transform="translate(20.52 38.79)"><tspan x="0" y="0">	</tspan></text>
    <text class="st1" transform="translate(21.26 38.79)"><tspan x="0" y="0">U</tspan></text>
    <text class="st1" transform="translate(22.93 38.79)"><tspan x="0" y="0">n</tspan></text>
    <text class="st1" transform="translate(24.39 38.79)"><tspan x="0" y="0">i</tspan></text>
    <text class="st1" transform="translate(25.13 38.79)"><tspan x="0" y="0">o</tspan></text>
    <text class="st1" transform="translate(26.52 38.79)"><tspan x="0" y="0">n</tspan></text>
    <text class="st1" transform="translate(9.65 44.35)"><tspan x="0" y="0">U</tspan></text>
    <text class="st1" transform="translate(11.32 44.35)"><tspan x="0" y="0">n</tspan></text>
    <text class="st1" transform="translate(12.77 44.35)"><tspan x="0" y="0">i</tspan></text>
    <text class="st1" transform="translate(13.51 44.35)"><tspan x="0" y="0">t</tspan></text>
    <text class="st1" transform="translate(14.49 44.35)"><tspan x="0" y="0">e</tspan></text>
    <text class="st1" transform="translate(15.9 44.35)"><tspan x="0" y="0">d</tspan></text>
    <text class="st2" transform="translate(17.33 44.35)"><tspan x="0" y="0">	</tspan></text>
    <text class="st1" transform="translate(18.08 44.35)"><tspan x="0" y="0">K</tspan></text>
    <text class="st1" transform="translate(19.6 44.35)"><tspan x="0" y="0">i</tspan></text>
    <text class="st1" transform="translate(20.34 44.35)"><tspan x="0" y="0">n</tspan></text>
    <text class="st1" transform="translate(21.79 44.35)"><tspan x="0" y="0">g</tspan></text>
    <text class="st1" transform="translate(23.03 44.35)"><tspan x="0" y="0">d</tspan></text>
    <text class="st1" transform="translate(24.46 44.35)"><tspan x="0" y="0">o</tspan></text>
    <text class="st1" transform="translate(25.86 44.35)"><tspan x="0" y="0">m</tspan></text>
    <text class="st1" transform="translate(12.54 49.9)"><tspan x="0" y="0">U</tspan></text>
    <text class="st1" transform="translate(14.21 49.9)"><tspan x="0" y="0">n</tspan></text>
    <text class="st1" transform="translate(15.67 49.9)"><tspan x="0" y="0">i</tspan></text>
    <text class="st1" transform="translate(16.4 49.9)"><tspan x="0" y="0">t</tspan></text>
    <text class="st1" transform="translate(17.38 49.9)"><tspan x="0" y="0">e</tspan></text>
    <text class="st1" transform="translate(18.8 49.9)"><tspan x="0" y="0">d</tspan></text>
    <text class="st2" transform="translate(20.23 49.9)"><tspan x="0" y="0">	</tspan></text>
    <text class="st1" transform="translate(20.97 49.9)"><tspan x="0" y="0">S</tspan></text>
    <text class="st1" transform="translate(22.23 49.9)"><tspan x="0" y="0">t</tspan></text>
    <text class="st1" transform="translate(23.21 49.9)"><tspan x="0" y="0">a</tspan></text>
    <text class="st1" transform="translate(24.52 49.9)"><tspan x="0" y="0">t</tspan></text>
    <text class="st1" transform="translate(25.5 49.9)"><tspan x="0" y="0">e</tspan></text>
    <text class="st1" transform="translate(26.92 49.9)"><tspan x="0" y="0">s</tspan></text>
  </g>
  <text/>
  <rect class="st12" x="51.66" y="19.57" width=".41" height="3.09"/>
  <rect class="st12" x="35.25" y="25.09" width=".41" height="3.09"/>
  <rect class="st12" x="35.05" y="30.77" width=".41" height="3.09"/>
  <rect class="st12" x="32.06" y="36.45" width=".41" height="3.09"/>
  <rect class="st12" x="28.8" y="41.88" width=".41" height="3.09"/>
  <rect class="st12" x="65.19" y="47.44" width=".41" height="3.09"/>
  <g>
    <path class="st5" d="M4.78,3.35l-.66-2.69h.52l.26,1.22c.07.33.13.67.18.94h0c.04-.28.12-.6.2-.94l.29-1.22h.52l.27,1.24c.07.32.12.62.16.91h0c.05-.3.11-.6.18-.93l.28-1.22h.5l-.73,2.69h-.53l-.28-1.27c-.07-.3-.12-.56-.15-.85h0c-.04.29-.1.55-.18.85l-.31,1.27h-.53Z"/>
    <path class="st5" d="M9.5,2.36c0,.72-.5,1.04-1,1.04-.55,0-.97-.38-.97-1s.42-1.03,1.01-1.03.97.41.97,1ZM8.04,2.38c0,.37.19.66.48.66s.48-.27.48-.66c0-.31-.14-.66-.48-.66s-.49.34-.49.66Z"/>
    <path class="st5" d="M9.91,1.98c0-.22,0-.41-.02-.58h.42l.02.29h.01c.09-.15.27-.33.6-.33.26,0,.46.14.54.36h0c.07-.11.15-.19.24-.24.11-.07.23-.11.4-.11.32,0,.65.22.65.84v1.15h-.48v-1.08c0-.32-.11-.51-.35-.51-.17,0-.29.12-.34.26-.02.05-.03.11-.03.16v1.17h-.48v-1.13c0-.27-.11-.47-.34-.47-.18,0-.31.14-.35.28-.02.05-.02.11-.02.16v1.15h-.48v-1.37Z"/>
    <path class="st5" d="M13.65,2.51c.01.35.29.51.6.51.23,0,.39-.04.54-.09l.07.34c-.17.07-.4.12-.68.12-.63,0-1-.39-1-.99,0-.54.33-1.05.95-1.05s.84.52.84.95c0,.09,0,.16-.02.21h-1.3ZM14.51,2.17c0-.18-.08-.47-.41-.47-.3,0-.43.27-.45.47h.86Z"/>
    <path class="st5" d="M15.37,1.98c0-.22,0-.41-.02-.58h.43l.02.29h.01c.09-.15.3-.34.62-.34s.69.22.69.83v1.16h-.49v-1.1c0-.28-.1-.49-.37-.49-.2,0-.33.14-.38.29-.02.04-.02.1-.02.16v1.15h-.49v-1.37Z"/>
    <path class="st5" d="M18.78,1.4l.2.88c.05.21.09.42.13.63h0c.04-.21.1-.43.16-.63l.25-.89h.4l.24.86c.06.23.11.44.16.65h0c.03-.21.08-.42.13-.65l.22-.86h.48l-.61,1.95h-.46l-.23-.79c-.06-.2-.1-.39-.15-.62h0c-.04.24-.09.43-.15.62l-.25.79h-.46l-.58-1.95h.5Z"/>
    <path class="st5" d="M22.55,3.35l-.03-.22h-.01c-.12.15-.32.26-.57.26-.4,0-.61-.28-.61-.58,0-.49.44-.74,1.15-.74v-.03c0-.13-.05-.34-.4-.34-.19,0-.39.06-.52.15l-.1-.32c.15-.09.4-.17.71-.17.62,0,.8.39.8.82v.7c0,.18,0,.35.03.47h-.44ZM22.48,2.4c-.35,0-.68.07-.68.36,0,.19.12.28.28.28.2,0,.34-.13.39-.27.01-.03.01-.07.01-.11v-.27Z"/>
    <path class="st5" d="M24.01.86c0,.15-.11.27-.28.27-.16,0-.27-.12-.27-.27,0-.15.11-.27.28-.27s.27.11.27.27ZM23.49,3.35v-1.95h.49v1.95h-.49Z"/>
    <path class="st5" d="M25.07.84v.56h.47v.37h-.47v.86c0,.24.06.36.25.36.08,0,.15,0,.19-.02v.37c-.06.03-.19.05-.35.05-.18,0-.33-.06-.42-.16-.11-.11-.15-.29-.15-.55v-.92h-.28v-.37h.28v-.44l.48-.12Z"/>
    <path class="st5" d="M26.24,2.51c.01.35.29.51.6.51.23,0,.39-.04.54-.09l.07.34c-.17.07-.4.12-.68.12-.63,0-1-.39-1-.99,0-.54.33-1.05.95-1.05s.84.52.84.95c0,.09,0,.16-.02.21h-1.3ZM27.09,2.17c0-.18-.08-.47-.41-.47-.3,0-.43.27-.45.47h.86Z"/>
    <path class="st5" d="M29.75.51v2.29c0,.2,0,.41.02.55h-.44l-.02-.31h0c-.12.22-.35.35-.63.35-.46,0-.83-.4-.83-.99,0-.65.4-1.04.87-1.04.27,0,.46.11.55.25h0V.51h.49ZM29.26,2.21s0-.09-.01-.13c-.04-.19-.2-.35-.42-.35-.32,0-.49.28-.49.64s.18.62.49.62c.2,0,.38-.14.42-.35.01-.04.01-.09.01-.14v-.29Z"/>
    <path class="st5" d="M31.4,1.4l.2.88c.05.21.09.42.13.63h0c.04-.21.1-.43.16-.63l.25-.89h.4l.24.86c.06.23.11.44.16.65h0c.03-.21.08-.42.13-.65l.22-.86h.48l-.61,1.95h-.46l-.23-.79c-.06-.2-.1-.39-.15-.62h0c-.04.24-.09.43-.15.62l-.25.79h-.46l-.58-1.95h.5Z"/>
    <path class="st5" d="M35.17,3.35l-.03-.22h-.01c-.12.15-.32.26-.57.26-.4,0-.61-.28-.61-.58,0-.49.44-.74,1.15-.74v-.03c0-.13-.05-.34-.4-.34-.19,0-.39.06-.52.15l-.1-.32c.15-.09.4-.17.71-.17.62,0,.8.39.8.82v.7c0,.18,0,.35.03.47h-.44ZM35.11,2.4c-.35,0-.68.07-.68.36,0,.19.12.28.28.28.2,0,.34-.13.39-.27.01-.03.01-.07.01-.11v-.27Z"/>
    <path class="st5" d="M36.38,1.4l.35,1.04c.04.12.08.27.11.38h.01c.03-.11.07-.26.1-.38l.3-1.04h.52l-.49,1.33c-.27.73-.45,1.05-.68,1.25-.19.17-.39.23-.52.25l-.11-.41c.08-.02.19-.06.28-.13.09-.06.2-.18.27-.31.02-.03.03-.06.03-.09,0-.02,0-.05-.03-.1l-.71-1.79h.54Z"/>
    <path class="st5" d="M38.9.51h.49v2.84h-.49V.51Z"/>
    <path class="st5" d="M41.78,2.36c0,.72-.5,1.04-1,1.04-.55,0-.97-.38-.97-1s.42-1.03,1.01-1.03.97.41.97,1ZM40.31,2.38c0,.37.19.66.48.66s.48-.27.48-.66c0-.31-.14-.66-.48-.66s-.49.34-.49.66Z"/>
    <path class="st5" d="M42.18,1.98c0-.22,0-.41-.02-.58h.43l.02.29h.01c.09-.15.3-.34.62-.34s.69.22.69.83v1.16h-.49v-1.1c0-.28-.1-.49-.37-.49-.2,0-.33.14-.38.29-.02.04-.02.1-.02.16v1.15h-.49v-1.37Z"/>
    <path class="st5" d="M46.25,1.4c0,.13-.02.29-.02.56v1.1c0,.41-.08.7-.29.88-.2.18-.48.24-.75.24-.25,0-.51-.05-.68-.15l.11-.38c.13.08.33.15.57.15.32,0,.56-.17.56-.59v-.17h0c-.11.17-.31.29-.57.29-.48,0-.83-.4-.83-.95,0-.64.42-1.03.88-1.03.3,0,.47.14.57.3h0l.02-.26h.43ZM45.74,2.18s0-.09-.02-.13c-.05-.18-.19-.32-.4-.32-.27,0-.48.24-.48.64,0,.33.17.6.48.6.18,0,.34-.12.4-.3.02-.05.02-.12.02-.17v-.32Z"/>
    <path class="st5" d="M47.11,2.51c.01.35.29.51.6.51.23,0,.39-.04.54-.09l.07.34c-.17.07-.4.12-.68.12-.63,0-1-.39-1-.99,0-.54.33-1.05.95-1.05s.84.52.84.95c0,.09,0,.16-.02.21h-1.3ZM47.97,2.17c0-.18-.08-.47-.41-.47-.3,0-.43.27-.45.47h.86Z"/>
    <path class="st5" d="M48.83,2.03c0-.26,0-.45-.02-.63h.43l.02.37h.01c.1-.27.32-.41.53-.41.05,0,.08,0,.12.01v.46s-.08-.01-.14-.01c-.23,0-.4.15-.44.37,0,.04-.01.1-.01.15v1.01h-.49v-1.32Z"/>
    <path class="st5" d="M51.64.84v.56h.47v.37h-.47v.86c0,.24.06.36.25.36.08,0,.15,0,.19-.02v.37c-.06.03-.19.05-.35.05-.18,0-.33-.06-.42-.16-.11-.11-.15-.29-.15-.55v-.92h-.28v-.37h.28v-.44l.48-.12Z"/>
    <path class="st5" d="M54.31,2.36c0,.72-.5,1.04-1,1.04-.55,0-.97-.38-.97-1s.42-1.03,1.01-1.03.97.41.97,1ZM52.84,2.38c0,.37.19.66.48.66s.48-.27.48-.66c0-.31-.14-.66-.48-.66s-.49.34-.49.66Z"/>
    <path class="st5" d="M55.89,2.51c.01.35.29.51.6.51.23,0,.39-.04.54-.09l.07.34c-.17.07-.4.12-.68.12-.63,0-1-.39-1-.99,0-.54.33-1.05.95-1.05s.84.52.84.95c0,.09,0,.16-.02.21h-1.3ZM56.74,2.17c0-.18-.08-.47-.41-.47-.3,0-.43.27-.45.47h.86Z"/>
    <path class="st5" d="M57.61,1.98c0-.22,0-.41-.02-.58h.43l.02.29h.01c.09-.15.3-.34.62-.34s.69.22.69.83v1.16h-.49v-1.1c0-.28-.1-.49-.37-.49-.2,0-.33.14-.38.29-.02.04-.02.1-.02.16v1.15h-.49v-1.37Z"/>
    <path class="st5" d="M60.44.84v.56h.47v.37h-.47v.86c0,.24.06.36.25.36.08,0,.15,0,.19-.02v.37c-.06.03-.19.05-.35.05-.18,0-.33-.06-.42-.16-.11-.11-.15-.29-.15-.55v-.92h-.28v-.37h.28v-.44l.48-.12Z"/>
    <path class="st5" d="M61.6,2.51c.01.35.29.51.6.51.23,0,.39-.04.54-.09l.07.34c-.17.07-.4.12-.68.12-.63,0-1-.39-1-.99,0-.54.33-1.05.95-1.05s.84.52.84.95c0,.09,0,.16-.02.21h-1.3ZM62.46,2.17c0-.18-.08-.47-.41-.47-.3,0-.43.27-.45.47h.86Z"/>
    <path class="st5" d="M63.32,2.03c0-.26,0-.45-.02-.63h.43l.02.37h.01c.1-.27.32-.41.53-.41.05,0,.08,0,.12.01v.46s-.08-.01-.14-.01c-.23,0-.4.15-.44.37,0,.04-.01.1-.01.15v1.01h-.49v-1.32Z"/>
    <path class="st5" d="M65.55,2.9c.11.07.32.14.5.14.22,0,.31-.09.31-.22s-.08-.2-.32-.28c-.38-.13-.54-.34-.54-.57,0-.34.28-.61.74-.61.21,0,.4.05.52.12l-.1.35c-.08-.05-.24-.11-.41-.11s-.27.09-.27.21.09.18.34.27c.35.12.52.31.52.59,0,.35-.28.61-.79.61-.24,0-.45-.06-.59-.14l.1-.36Z"/>
    <path class="st5" d="M67.24,2.05c0-.25,0-.46-.02-.65h.43l.02.3h0c.14-.22.37-.34.67-.34.45,0,.82.38.82.99,0,.71-.44,1.04-.88,1.04-.25,0-.45-.1-.55-.26h0v1.01h-.49v-2.09ZM67.73,2.53s0,.09.01.13c.05.2.22.34.43.34.31,0,.5-.26.5-.64,0-.35-.17-.62-.48-.62-.2,0-.39.15-.44.36,0,.04-.02.08-.02.12v.3Z"/>
    <path class="st5" d="M70.67,3.35l-.03-.22h-.01c-.12.15-.32.26-.57.26-.4,0-.61-.28-.61-.58,0-.49.44-.74,1.15-.74v-.03c0-.13-.05-.34-.4-.34-.19,0-.39.06-.52.15l-.1-.32c.15-.09.4-.17.71-.17.62,0,.8.39.8.82v.7c0,.18,0,.35.03.47h-.44ZM70.61,2.4c-.35,0-.68.07-.68.36,0,.19.12.28.28.28.2,0,.34-.13.39-.27.01-.03.01-.07.01-.11v-.27Z"/>
    <path class="st5" d="M73.04,3.29c-.1.05-.31.1-.55.1-.61,0-1-.39-1-1s.4-1.04,1.08-1.04c.18,0,.36.04.48.09l-.09.37c-.08-.04-.2-.08-.37-.08-.38,0-.6.27-.6.63,0,.4.26.63.6.63.17,0,.29-.04.39-.08l.07.37Z"/>
    <path class="st5" d="M73.72,2.51c.01.35.29.51.6.51.23,0,.39-.04.54-.09l.07.34c-.17.07-.4.12-.68.12-.63,0-1-.39-1-.99,0-.54.33-1.05.95-1.05s.84.52.84.95c0,.09,0,.16-.02.21h-1.3ZM74.57,2.17c0-.18-.08-.47-.41-.47-.3,0-.43.27-.45.47h.86Z"/>
    <path class="st5" d="M76.26,2.05c0-.25,0-.46-.02-.65h.43l.02.3h0c.14-.22.37-.34.67-.34.45,0,.82.38.82.99,0,.71-.44,1.04-.89,1.04-.24,0-.45-.1-.55-.26h0v1.01h-.49v-2.09ZM76.75,2.53s0,.09.01.13c.05.2.22.34.43.34.31,0,.5-.26.5-.64,0-.35-.17-.62-.48-.62-.2,0-.39.15-.44.36,0,.04-.02.08-.02.12v.3Z"/>
    <path class="st5" d="M78.6,2.03c0-.26,0-.45-.02-.63h.43l.02.37h.01c.1-.27.32-.41.53-.41.05,0,.08,0,.12.01v.46s-.08-.01-.14-.01c-.23,0-.4.15-.44.37,0,.04-.01.1-.01.15v1.01h-.49v-1.32Z"/>
    <path class="st5" d="M81.84,2.36c0,.72-.5,1.04-1,1.04-.55,0-.97-.38-.97-1s.42-1.03,1.01-1.03.97.41.97,1ZM80.37,2.38c0,.37.19.66.48.66s.48-.27.48-.66c0-.31-.14-.66-.48-.66s-.49.34-.49.66Z"/>
    <path class="st5" d="M84.03,1.4c0,.13-.02.29-.02.56v1.1c0,.41-.08.7-.29.88-.2.18-.48.24-.75.24-.25,0-.51-.05-.68-.15l.11-.38c.13.08.33.15.57.15.32,0,.56-.17.56-.59v-.17h0c-.11.17-.31.29-.57.29-.48,0-.83-.4-.83-.95,0-.64.42-1.03.88-1.03.3,0,.47.14.57.3h0l.02-.26h.43ZM83.52,2.18s0-.09-.02-.13c-.05-.18-.19-.32-.4-.32-.27,0-.48.24-.48.64,0,.33.17.6.48.6.18,0,.34-.12.4-.3.02-.05.02-.12.02-.17v-.32Z"/>
    <path class="st5" d="M84.53,2.03c0-.26,0-.45-.02-.63h.43l.02.37h.01c.1-.27.32-.41.53-.41.05,0,.08,0,.12.01v.46s-.08-.01-.14-.01c-.23,0-.4.15-.44.37,0,.04-.01.1-.01.15v1.01h-.49v-1.32Z"/>
    <path class="st5" d="M87.01,3.35l-.03-.22h-.01c-.12.15-.32.26-.57.26-.4,0-.61-.28-.61-.58,0-.49.44-.74,1.15-.74v-.03c0-.13-.05-.34-.4-.34-.19,0-.39.06-.52.15l-.1-.32c.15-.09.4-.17.71-.17.62,0,.8.39.8.82v.7c0,.18,0,.35.03.47h-.44ZM86.95,2.4c-.35,0-.68.07-.68.36,0,.19.12.28.28.28.2,0,.34-.13.39-.27.01-.03.01-.07.01-.11v-.27Z"/>
    <path class="st5" d="M87.95,1.98c0-.22,0-.41-.02-.58h.42l.02.29h.01c.09-.15.27-.33.6-.33.26,0,.46.14.54.36h0c.07-.11.15-.19.24-.24.11-.07.23-.11.4-.11.32,0,.65.22.65.84v1.15h-.48v-1.08c0-.32-.11-.51-.35-.51-.17,0-.29.12-.34.26-.02.05-.03.11-.03.16v1.17h-.48v-1.13c0-.27-.11-.47-.34-.47-.18,0-.31.14-.35.28-.02.05-.02.11-.02.16v1.15h-.48v-1.37Z"/>
    <path class="st5" d="M91.32,2.9c.11.07.32.14.5.14.22,0,.31-.09.31-.22s-.08-.2-.32-.28c-.38-.13-.54-.34-.54-.57,0-.34.28-.61.74-.61.21,0,.4.05.52.12l-.1.35c-.08-.05-.24-.11-.41-.11s-.27.09-.27.21.09.18.34.27c.35.12.52.31.52.59,0,.35-.28.61-.79.61-.24,0-.45-.06-.59-.14l.1-.36Z"/>
  </g>
  <g>
    <path class="st5" d="M62.25,55.43c0,.45-.27.71-.65.71s-.62-.29-.62-.69c0-.41.26-.71.64-.71s.62.3.62.68ZM61.24,55.45c0,.27.14.49.37.49s.37-.22.37-.5c0-.25-.13-.49-.37-.49s-.37.23-.37.5Z"/>
    <path class="st5" d="M62.46,55.46c0-.13,0-.23,0-.31h.21v.18h.02c.05-.14.16-.21.27-.21.02,0,.04,0,.06,0v.23s-.04,0-.07,0c-.12,0-.2.07-.22.19,0,.02,0,.05,0,.07v.5h-.25v-.66Z"/>
    <path class="st5" d="M63.43,54.88c0,.07-.05.13-.14.13-.08,0-.13-.06-.13-.13s.06-.13.14-.13.14.06.14.13ZM63.17,56.12v-.97h.25v.97h-.25Z"/>
    <path class="st5" d="M64.57,55.15c0,.07,0,.15,0,.28v.55c0,.2-.04.35-.14.44-.1.09-.24.12-.38.12-.12,0-.26-.03-.34-.08l.05-.19c.06.04.17.08.28.08.16,0,.28-.08.28-.29v-.08h0c-.06.08-.15.14-.28.14-.24,0-.41-.2-.41-.48,0-.32.21-.51.44-.51.15,0,.24.07.28.15h0v-.13h.22ZM64.32,55.54s0-.05,0-.07c-.03-.09-.1-.16-.2-.16-.14,0-.24.12-.24.32,0,.17.08.3.24.3.09,0,.17-.06.2-.15,0-.03.01-.06.01-.09v-.16Z"/>
    <path class="st5" d="M65.08,54.88c0,.07-.05.13-.14.13-.08,0-.13-.06-.13-.13s.06-.13.14-.13.14.06.14.13ZM64.82,56.12v-.97h.25v.97h-.25Z"/>
    <path class="st5" d="M65.33,55.44c0-.11,0-.21,0-.29h.22v.15h.02c.04-.08.15-.17.31-.17.17,0,.35.11.35.42v.58h-.25v-.55c0-.14-.05-.25-.19-.25-.1,0-.17.07-.19.14,0,.02-.01.05-.01.08v.57h-.25v-.68Z"/>
    <path class="st5" d="M67.03,56.12l-.02-.11h0c-.06.08-.16.13-.29.13-.2,0-.31-.14-.31-.29,0-.25.22-.37.58-.37v-.02c0-.06-.03-.17-.2-.17-.1,0-.2.03-.26.07l-.05-.16c.07-.04.2-.09.35-.09.31,0,.4.2.4.41v.35c0,.09,0,.17.02.23h-.22ZM66.99,55.64c-.17,0-.34.03-.34.18,0,.09.06.14.14.14.1,0,.17-.06.19-.13,0-.02,0-.04,0-.05v-.13Z"/>
    <path class="st5" d="M67.49,54.7h.25v1.42h-.25v-1.42Z"/>
    <path class="st5" d="M69.31,55.15c0,.07,0,.15,0,.28v.55c0,.2-.04.35-.14.44-.1.09-.24.12-.38.12-.12,0-.26-.03-.34-.08l.05-.19c.06.04.17.08.28.08.16,0,.28-.08.28-.29v-.08h0c-.06.08-.15.14-.28.14-.24,0-.41-.2-.41-.48,0-.32.21-.51.44-.51.15,0,.24.07.28.15h0v-.13h.22ZM69.06,55.54s0-.05,0-.07c-.03-.09-.1-.16-.2-.16-.14,0-.24.12-.24.32,0,.17.08.3.24.3.09,0,.17-.06.2-.15,0-.03.01-.06.01-.09v-.16Z"/>
    <path class="st5" d="M69.56,55.46c0-.13,0-.23,0-.31h.21v.18h.02c.05-.14.16-.21.27-.21.02,0,.04,0,.06,0v.23s-.04,0-.07,0c-.12,0-.2.07-.22.19,0,.02,0,.05,0,.07v.5h-.25v-.66Z"/>
    <path class="st5" d="M70.8,56.12l-.02-.11h0c-.06.08-.16.13-.29.13-.2,0-.31-.14-.31-.29,0-.25.22-.37.58-.37v-.02c0-.06-.03-.17-.2-.17-.1,0-.2.03-.26.07l-.05-.16c.07-.04.2-.09.35-.09.31,0,.4.2.4.41v.35c0,.09,0,.17.02.23h-.22ZM70.77,55.64c-.17,0-.34.03-.34.18,0,.09.06.14.14.14.1,0,.17-.06.19-.13,0-.02,0-.04,0-.05v-.13Z"/>
    <path class="st5" d="M71.27,55.47c0-.13,0-.23,0-.32h.22v.15h.02c.07-.11.19-.17.33-.17.22,0,.41.19.41.5,0,.35-.22.52-.44.52-.12,0-.22-.05-.27-.13h0v.5h-.25v-1.05ZM71.52,55.71s0,.05,0,.07c.02.1.11.17.22.17.16,0,.25-.13.25-.32,0-.17-.08-.31-.24-.31-.1,0-.19.07-.22.18,0,.02,0,.04,0,.06v.15Z"/>
    <path class="st5" d="M72.44,54.7h.25v.58h0s.07-.08.12-.11c.05-.03.11-.04.17-.04.17,0,.34.11.34.42v.57h-.25v-.55c0-.14-.05-.25-.19-.25-.1,0-.16.06-.19.14,0,.02-.01.05-.01.07v.58h-.25v-1.42Z"/>
    <path class="st5" d="M73.99,56.12c0-.07,0-.17,0-.27v-1.15h.25v.58h0c.06-.1.17-.16.31-.16.24,0,.41.2.41.49,0,.35-.22.52-.44.52-.13,0-.24-.05-.31-.17h0v.15h-.22ZM74.24,55.72s0,.04,0,.06c.03.1.11.17.22.17.15,0,.25-.12.25-.32,0-.17-.08-.31-.24-.31-.1,0-.19.07-.22.18,0,.02,0,.04,0,.06v.16Z"/>
    <path class="st5" d="M75.31,55.15l.18.52c.02.06.04.13.05.19h0c.02-.05.03-.13.05-.19l.15-.52h.26l-.24.66c-.13.36-.22.52-.34.62-.1.08-.2.12-.26.12l-.06-.21s.09-.03.14-.07c.05-.03.1-.09.14-.16,0-.02.02-.03.02-.04,0-.01,0-.03-.01-.05l-.36-.89h.27Z"/>
    <path class="st5" d="M76.81,56.12l-.44-1.35h.27l.18.61c.05.17.1.33.13.49h0c.04-.16.08-.32.14-.49l.2-.62h.26l-.47,1.35h-.28Z"/>
    <path class="st5" d="M78.17,56.12l-.02-.11h0c-.06.08-.16.13-.29.13-.2,0-.31-.14-.31-.29,0-.25.22-.37.58-.37v-.02c0-.06-.03-.17-.2-.17-.1,0-.2.03-.26.07l-.05-.16c.07-.04.2-.09.35-.09.31,0,.4.2.4.41v.35c0,.09,0,.17.02.23h-.22ZM78.13,55.64c-.17,0-.34.03-.34.18,0,.09.06.14.14.14.1,0,.17-.06.19-.13,0-.02,0-.04,0-.05v-.13Z"/>
    <path class="st5" d="M78.64,55.46c0-.13,0-.23,0-.31h.21v.18h.02c.05-.14.16-.21.27-.21.02,0,.04,0,.06,0v.23s-.04,0-.07,0c-.12,0-.2.07-.22.19,0,.02,0,.05,0,.07v.5h-.25v-.66Z"/>
    <path class="st5" d="M80.22,55.83c0,.12,0,.21,0,.29h-.21v-.15h-.02c-.04.07-.14.17-.31.17s-.34-.11-.34-.42v-.57h.25v.53c0,.16.05.26.18.26.1,0,.16-.07.19-.13,0-.02.01-.05.01-.08v-.59h.25v.68Z"/>
    <path class="st5" d="M80.48,55.44c0-.11,0-.21,0-.29h.22v.15h.02c.04-.08.15-.17.31-.17.17,0,.35.11.35.42v.58h-.25v-.55c0-.14-.05-.25-.19-.25-.1,0-.17.07-.19.14,0,.02-.01.05-.01.08v.57h-.25v-.68Z"/>
    <path class="st5" d="M82.32,54.77h.25v.87c0,.37-.18.5-.45.5-.07,0-.15-.01-.21-.03l.03-.2s.09.02.15.02c.14,0,.23-.06.23-.3v-.87Z"/>
    <path class="st5" d="M83.37,56.12l-.02-.11h0c-.06.08-.16.13-.29.13-.2,0-.31-.14-.31-.29,0-.25.22-.37.58-.37v-.02c0-.06-.03-.17-.2-.17-.1,0-.2.03-.26.07l-.05-.16c.07-.04.2-.09.35-.09.31,0,.4.2.4.41v.35c0,.09,0,.17.02.23h-.22ZM83.33,55.64c-.17,0-.34.03-.34.18,0,.09.06.14.14.14.1,0,.17-.06.19-.13,0-.02,0-.04,0-.05v-.13Z"/>
    <path class="st5" d="M84.09,54.88c0,.07-.05.13-.14.13-.08,0-.13-.06-.13-.13s.06-.13.14-.13.14.06.14.13ZM83.83,56.12v-.97h.25v.97h-.25Z"/>
    <path class="st5" d="M84.35,55.44c0-.11,0-.21,0-.29h.22v.15h.02c.04-.08.15-.17.31-.17.17,0,.35.11.35.42v.58h-.25v-.55c0-.14-.05-.25-.19-.25-.1,0-.17.07-.19.14,0,.02-.01.05-.01.08v.57h-.25v-.68Z"/>
    <path class="st5" d="M85.46,55.99c0-.09.06-.16.15-.16s.15.06.15.16c0,.09-.06.16-.15.16s-.15-.07-.15-.16Z"/>
    <path class="st5" d="M60.97,57.68c.05-.18.14-.39.22-.51h.15c-.05.13-.1.33-.13.49l-.24.02ZM61.32,57.68c.05-.18.14-.39.22-.51h.15c-.05.13-.1.33-.13.49l-.24.02Z"/>
    <path class="st5" d="M61.87,57.19c.09-.02.23-.03.37-.03.19,0,.32.03.42.11.07.06.12.16.12.27,0,.17-.12.29-.25.34h0c.1.04.15.13.19.27.04.17.08.32.11.38h-.25s-.05-.15-.09-.32c-.04-.17-.1-.23-.24-.24h-.12v.55h-.24v-1.33ZM62.11,57.79h.15c.17,0,.27-.09.27-.22,0-.15-.1-.22-.26-.22-.08,0-.13,0-.15.01v.42Z"/>
    <path class="st5" d="M63.18,58.1c0,.18.14.25.3.25.11,0,.19-.02.27-.04l.04.17c-.08.04-.2.06-.34.06-.32,0-.5-.2-.5-.49,0-.27.16-.52.48-.52s.42.26.42.47c0,.05,0,.08,0,.1h-.65ZM63.61,57.93c0-.09-.04-.24-.2-.24-.15,0-.21.14-.23.24h.43Z"/>
    <path class="st5" d="M64.04,57.84c0-.11,0-.21,0-.29h.21v.14h.02c.05-.08.14-.17.3-.17.13,0,.23.07.27.18h0c.03-.05.08-.09.12-.12.06-.04.12-.06.2-.06.16,0,.32.11.32.42v.57h-.24v-.54c0-.16-.06-.26-.17-.26-.08,0-.15.06-.17.13,0,.02-.01.05-.01.08v.58h-.24v-.56c0-.14-.06-.23-.17-.23-.09,0-.15.07-.18.14,0,.02-.01.05-.01.08v.58h-.24v-.68Z"/>
    <path class="st5" d="M66,57.28c0,.07-.05.13-.14.13-.08,0-.13-.06-.13-.13s.06-.13.14-.13.14.06.14.13ZM65.73,58.52v-.97h.25v.97h-.25Z"/>
    <path class="st5" d="M66.41,57.55l.12.18c.03.05.06.1.09.15h0c.03-.05.06-.1.09-.15l.11-.18h.27l-.33.47.33.51h-.28l-.12-.19c-.03-.05-.06-.1-.09-.16h0c-.03.06-.06.11-.09.16l-.11.19h-.27l.34-.5-.33-.48h.27Z"/>
    <path class="st5" d="M67.37,58.1c0,.18.14.25.3.25.11,0,.19-.02.27-.04l.04.17c-.08.04-.2.06-.34.06-.32,0-.5-.2-.5-.49,0-.27.16-.52.48-.52s.42.26.42.47c0,.05,0,.08,0,.1h-.65ZM67.8,57.93c0-.09-.04-.24-.2-.24-.15,0-.21.14-.23.24h.43Z"/>
    <path class="st5" d="M69.13,57.1v1.15c0,.1,0,.21,0,.27h-.22v-.15h-.02c-.06.11-.18.18-.32.18-.23,0-.42-.2-.42-.5,0-.33.2-.52.44-.52.13,0,.23.05.27.13h0v-.55h.25ZM68.88,57.95s0-.04,0-.06c-.02-.09-.1-.17-.21-.17-.16,0-.25.14-.25.32s.09.31.24.31c.1,0,.19-.07.21-.18,0-.02,0-.05,0-.07v-.15Z"/>
    <path class="st5" d="M69.69,57.15c-.05.18-.14.39-.22.51h-.15c.05-.13.1-.33.13-.49l.24-.02ZM70.04,57.15c-.05.18-.14.39-.22.51h-.15c.05-.13.1-.33.13-.49l.24-.02Z"/>
    <path class="st5" d="M70.47,58.52c0-.07,0-.17,0-.27v-1.15h.25v.58h0c.06-.1.17-.16.31-.16.24,0,.41.2.41.49,0,.35-.22.52-.44.52-.13,0-.24-.05-.31-.17h0v.15h-.22ZM70.73,58.12s0,.04,0,.06c.03.1.11.17.22.17.15,0,.25-.12.25-.32,0-.17-.08-.31-.24-.31-.1,0-.19.07-.22.18,0,.02,0,.04,0,.06v.16Z"/>
    <path class="st5" d="M71.79,57.55l.18.52c.02.06.04.13.05.19h0c.02-.05.03-.13.05-.19l.15-.52h.26l-.24.66c-.13.36-.22.52-.34.62-.1.08-.2.12-.26.12l-.06-.21s.09-.03.14-.07c.05-.03.1-.09.14-.16,0-.02.02-.03.02-.04,0-.01,0-.03-.01-.05l-.36-.89h.27Z"/>
    <path class="st5" d="M73.06,58.52v-1.35h.28l.35.58c.09.15.17.31.23.45h0c-.02-.18-.02-.35-.02-.56v-.47h.23v1.35h-.25l-.35-.59c-.09-.15-.18-.31-.24-.46h0c0,.18.01.35.01.58v.48h-.23Z"/>
    <path class="st5" d="M74.95,58.52l-.02-.11h0c-.06.08-.16.13-.29.13-.2,0-.31-.14-.31-.29,0-.25.22-.37.58-.37v-.02c0-.06-.03-.17-.2-.17-.1,0-.2.03-.26.07l-.05-.16c.07-.04.2-.09.35-.09.31,0,.4.2.4.41v.35c0,.09,0,.17.02.23h-.22ZM74.92,58.04c-.17,0-.34.03-.34.18,0,.09.06.14.14.14.1,0,.17-.06.19-.13,0-.02,0-.04,0-.05v-.13Z"/>
    <path class="st5" d="M75.69,57.27v.28h.23v.18h-.23v.43c0,.12.03.18.13.18.04,0,.07,0,.1-.01v.19s-.1.03-.17.03c-.09,0-.17-.03-.21-.08-.05-.06-.08-.15-.08-.27v-.46h-.14v-.18h.14v-.22l.24-.06Z"/>
    <path class="st5" d="M76.66,58.52l-.02-.11h0c-.06.08-.16.13-.29.13-.2,0-.31-.14-.31-.29,0-.25.22-.37.58-.37v-.02c0-.06-.03-.17-.2-.17-.1,0-.2.03-.26.07l-.05-.16c.07-.04.2-.09.35-.09.31,0,.4.2.4.41v.35c0,.09,0,.17.02.23h-.22ZM76.62,58.04c-.17,0-.34.03-.34.18,0,.09.06.14.14.14.1,0,.17-.06.19-.13,0-.02,0-.04,0-.05v-.13Z"/>
    <path class="st5" d="M77.12,57.1h.25v1.42h-.25v-1.42Z"/>
    <path class="st5" d="M77.9,57.28c0,.07-.05.13-.14.13-.08,0-.13-.06-.13-.13s.06-.13.14-.13.14.06.14.13ZM77.64,58.52v-.97h.25v.97h-.25Z"/>
    <path class="st5" d="M78.32,58.1c0,.18.14.25.3.25.11,0,.19-.02.27-.04l.04.17c-.08.04-.2.06-.34.06-.32,0-.5-.2-.5-.49,0-.27.16-.52.48-.52s.42.26.42.47c0,.05,0,.08,0,.1h-.65ZM78.75,57.93c0-.09-.04-.24-.2-.24-.15,0-.21.14-.23.24h.43Z"/>
    <path class="st5" d="M79.87,57.17h.25v.87c0,.37-.18.5-.45.5-.07,0-.15-.01-.21-.03l.03-.2s.09.02.15.02c.14,0,.23-.06.23-.3v-.87Z"/>
    <path class="st5" d="M81.3,58.03c0,.36-.25.52-.5.52-.27,0-.49-.19-.49-.5s.21-.52.5-.52.48.2.48.5ZM80.57,58.04c0,.19.09.33.24.33s.24-.14.24-.33c0-.15-.07-.33-.24-.33s-.24.17-.24.33Z"/>
    <path class="st5" d="M81.51,57.84c0-.11,0-.21,0-.29h.22v.15h.02c.04-.08.15-.17.31-.17.17,0,.35.11.35.42v.58h-.25v-.55c0-.14-.05-.25-.19-.25-.1,0-.17.07-.19.14,0,.02-.01.05-.01.08v.57h-.25v-.68Z"/>
    <path class="st5" d="M83.2,58.52l-.02-.11h0c-.06.08-.16.13-.29.13-.2,0-.31-.14-.31-.29,0-.25.22-.37.58-.37v-.02c0-.06-.03-.17-.2-.17-.1,0-.2.03-.26.07l-.05-.16c.07-.04.2-.09.35-.09.31,0,.4.2.4.41v.35c0,.09,0,.17.02.23h-.22ZM83.17,58.04c-.17,0-.34.03-.34.18,0,.09.06.14.14.14.1,0,.17-.06.19-.13,0-.02,0-.04,0-.05v-.13Z"/>
    <path class="st5" d="M83.66,58.29c.05.03.16.07.25.07.11,0,.16-.05.16-.11s-.04-.1-.16-.14c-.19-.07-.27-.17-.27-.28,0-.17.14-.3.37-.3.11,0,.2.03.26.06l-.05.17s-.12-.06-.21-.06-.14.04-.14.1.05.09.17.14c.18.06.26.15.26.3,0,.18-.14.31-.4.31-.12,0-.22-.03-.3-.07l.05-.18Z"/>
  </g>
  <text class="st6" transform="translate(1.35 6.62)"><tspan x="0" y="0">Potential female astronauts faced a host of obstacles, such as perceived physical and emotion limitations. The lag </tspan><tspan x="0" y="2.4">between the first male vs. female space flights was enormous — for example, more than 8,079 days (22 years) passed </tspan><tspan x="0" y="4.8">before a female American astronaut went to space. </tspan></text>
  <rect class="st12" x="42.96" y="13.98" width=".62" height="3.09"/>
</svg>